<svg width="44" height="30" viewBox="0 0 44 30" fill="none" xmlns="http://www.w3.org/2000/svg">
<g clip-path="url(#clip0_677_3434)">
<path fill-rule="evenodd" clip-rule="evenodd" d="M43.75 22.3178C43.75 26.5605 34.0174 30.0002 22.0011 30.0002C9.98482 30.0002 0.25 26.5605 0.25 22.3178C0.25 18.075 9.98256 14.6353 22.0011 14.6353C34.0197 14.6353 43.75 18.075 43.75 22.3178Z" fill="#E2CAB3"/>
<path fill-rule="evenodd" clip-rule="evenodd" d="M43.75 21.4701C43.75 25.7128 34.0174 29.1526 22.0011 29.1526C9.98482 29.1526 0.25 25.7128 0.25 21.4701C0.25 17.2274 9.98256 13.7876 22.0011 13.7876C34.0197 13.7876 43.75 17.2274 43.75 21.4701Z" fill="white"/>
<path fill-rule="evenodd" clip-rule="evenodd" d="M43.75 21.3488C43.75 25.4589 34.0174 28.7902 22.0011 28.7902C9.98482 28.7902 0.25 25.4589 0.25 21.3488C0.25 17.2388 9.98256 13.9097 22.0011 13.9097C34.0197 13.9097 43.75 17.241 43.75 21.3488Z" fill="#E7D8C8"/>
<path fill-rule="evenodd" clip-rule="evenodd" d="M42.7854 21.349C42.7854 24.2822 34.4562 26.6579 24.1827 26.6579C13.9092 26.6579 5.57764 24.2822 5.57764 21.349C5.57764 18.4158 13.9069 16.04 24.1827 16.04C34.4584 16.04 42.7854 18.418 42.7854 21.349Z" fill="#E2CAB3"/>
<path d="M41.2171 21.5388C40.821 19.7249 38.8926 18.9574 37.3694 18.8357C36.4301 18.7627 35.4908 18.9574 34.5537 19.0082C34.0331 19.0374 33.5108 19.0166 32.9943 18.9463C32.4239 18.8689 31.8784 18.6676 31.3035 18.6211C30.3054 18.5415 29.3163 18.8799 28.386 19.2339C27.2928 19.6519 26.1996 20.0324 25.0792 20.3554C22.8692 21.0134 20.5923 21.434 18.289 21.6096C17.3522 21.693 16.4093 21.6878 15.4734 21.5941C14.817 21.5145 14.1697 21.3729 13.5133 21.2977C12.3635 21.1716 11.0892 21.3198 10.6252 22.6404C10.2774 22.6393 9.9343 22.7197 9.62481 22.8749C9.15629 23.0718 8.52933 23.4213 8.28715 23.9279C7.78242 24.9874 9.41884 25.4033 10.0254 25.5161C10.6026 25.6223 11.1843 25.6599 11.7637 25.7196C12.5695 25.8037 13.2168 26.1775 13.8981 26.6332C15.616 27.7813 17.9088 27.8565 19.8644 27.7238C20.943 27.6447 22.0095 27.4496 23.0444 27.142C24.1376 26.8234 25.2625 27.0159 26.3671 27.1995C27.3158 27.3953 28.3011 27.3373 29.2189 27.0314C30.1424 26.7106 30.9436 26.1244 31.7336 25.536C32.6548 24.8503 33.7027 24.8083 34.7869 24.722C35.8556 24.6572 36.9162 24.498 37.9556 24.2464C38.8282 24.0309 39.6778 23.7346 40.4929 23.3616C41.1854 23.0054 41.3801 22.3418 41.2171 21.5388Z" fill="#EEBE30"/>
<path d="M35.0427 19.9618C35.0427 22.8198 28.8342 25.4765 21.3582 25.4765C13.8823 25.4765 7.62402 22.623 7.62402 19.765C7.62402 16.907 13.8823 15.1196 21.3582 15.1196C28.8342 15.1196 35.0427 17.1039 35.0427 19.9618Z" fill="#E3AC8A"/>
<path d="M34.8934 19.4106C34.8934 22.2686 28.8343 24.5846 21.3584 24.5846C13.8824 24.5846 7.82104 22.2686 7.82104 19.4106C7.82104 16.5526 13.8824 14.2344 21.3584 14.2344C28.8343 14.2344 34.8934 16.5526 34.8934 19.4106Z" fill="#DA840D"/>
<path d="M31.2041 18.92C31.2041 21.0413 26.709 22.7579 21.1614 22.7579C15.6139 22.7579 11.1143 21.0413 11.1143 18.92C11.1143 16.7986 15.6161 15.082 21.1614 15.082C26.7067 15.082 31.2041 16.8119 31.2041 18.92Z" fill="#F0A508"/>
<path d="M14.403 20.3355C14.403 20.5567 14.1473 20.7492 13.8304 20.7492C13.5135 20.7492 13.26 20.5634 13.26 20.3355C13.26 20.1077 13.5158 19.9219 13.8304 19.9219C14.145 19.9219 14.403 20.1077 14.403 20.3355Z" fill="#DA840D"/>
<path d="M13.2599 18.595C13.2568 18.6559 13.2355 18.7146 13.1986 18.7638C13.1617 18.813 13.1109 18.8506 13.0524 18.8719C12.9938 18.8931 12.9302 18.8971 12.8694 18.8834C12.8086 18.8697 12.7532 18.8388 12.7101 18.7946C12.6671 18.7504 12.6382 18.6949 12.6271 18.6349C12.6161 18.5748 12.6232 18.5129 12.6478 18.4568C12.6723 18.4007 12.7132 18.3529 12.7653 18.3193C12.8174 18.2856 12.8784 18.2677 12.9408 18.2676C12.9838 18.2684 13.0262 18.2776 13.0656 18.2946C13.1049 18.3115 13.1405 18.3359 13.1701 18.3663C13.1998 18.3968 13.223 18.4326 13.2384 18.4719C13.2538 18.5111 13.2612 18.5529 13.2599 18.595Z" fill="#DA840D"/>
<path d="M17.2253 20.8374C17.2325 20.9449 17.2066 21.0521 17.1507 21.1451C17.0948 21.238 17.0117 21.3123 16.9121 21.3585C16.8124 21.4047 16.7009 21.4205 16.5919 21.4039C16.4829 21.3874 16.3816 21.3392 16.301 21.2656C16.2204 21.192 16.1643 21.0965 16.14 20.9914C16.1157 20.8863 16.1243 20.7764 16.1646 20.6761C16.205 20.5758 16.2752 20.4897 16.3663 20.4289C16.4573 20.3681 16.565 20.3355 16.6753 20.3353C16.7451 20.3329 16.8148 20.344 16.8802 20.368C16.9457 20.3919 17.0057 20.4283 17.0568 20.4749C17.1079 20.5216 17.149 20.5776 17.1779 20.6398C17.2069 20.702 17.2229 20.7691 17.2253 20.8374Z" fill="#DA840D"/>
<path d="M16.0303 18.8447C16.0303 18.9818 15.8741 19.0947 15.684 19.0947C15.4939 19.0947 15.3354 18.9818 15.3354 18.8447C15.3354 18.7075 15.4916 18.5947 15.684 18.5947C15.8764 18.5947 16.0303 18.7053 16.0303 18.8447Z" fill="#DA840D"/>
<path d="M19.5295 20.0308C19.5378 20.1002 19.5242 20.1705 19.4907 20.2323C19.4571 20.2941 19.4052 20.3445 19.3417 20.3768C19.2782 20.409 19.2061 20.4217 19.1351 20.413C19.0641 20.4044 18.9974 20.3748 18.944 20.3283C18.8905 20.2818 18.8528 20.2205 18.8358 20.1526C18.8188 20.0846 18.8233 20.0132 18.8488 19.9479C18.8742 19.8825 18.9194 19.8262 18.9783 19.7865C19.0372 19.7468 19.1071 19.7255 19.1787 19.7255C19.2664 19.7212 19.3524 19.7509 19.418 19.808C19.4836 19.8651 19.5237 19.9451 19.5295 20.0308Z" fill="#DA840D"/>
<path d="M19.6631 21.8733C19.6631 22.0149 19.4956 22.1299 19.2873 22.1299C19.0791 22.1299 18.9116 22.0149 18.9116 21.8733C18.9116 21.7317 19.0814 21.6167 19.2873 21.6167C19.4933 21.6167 19.6631 21.7317 19.6631 21.8733Z" fill="#DA840D"/>
<path d="M18.1649 19.128C18.1609 19.1794 18.1415 19.2285 18.1092 19.2693C18.0768 19.31 18.033 19.3406 17.983 19.3572C17.9331 19.3738 17.8793 19.3757 17.8282 19.3626C17.7772 19.3496 17.7312 19.3222 17.6959 19.2839C17.6607 19.2455 17.6377 19.1979 17.6299 19.1469C17.6221 19.0959 17.6298 19.0438 17.652 18.9971C17.6742 18.9503 17.71 18.911 17.7549 18.8839C17.7998 18.8568 17.8518 18.8433 17.9046 18.8449C17.977 18.85 18.0446 18.8823 18.0932 18.9351C18.1417 18.9879 18.1674 19.0571 18.1649 19.128Z" fill="#DA840D"/>
<path d="M22.0621 19.6655C22.0621 19.8071 21.8991 19.9221 21.6977 19.9221C21.4962 19.9221 21.3333 19.8071 21.3333 19.6655C21.3333 19.5239 21.4962 19.4111 21.6977 19.4111C21.8991 19.4111 22.0621 19.5239 22.0621 19.6655Z" fill="#DA840D"/>
<path d="M22.0621 20.99C22.0621 21.0741 21.8991 21.1427 21.6977 21.1427C21.4962 21.1427 21.3333 21.0741 21.3333 20.99C21.3333 20.906 21.4962 20.8374 21.6977 20.8374C21.8991 20.8374 22.0621 20.906 22.0621 20.99Z" fill="#DA840D"/>
<path d="M24.5271 20.1298C24.5271 20.2426 24.38 20.3355 24.1966 20.3355C24.0133 20.3355 23.8684 20.2426 23.8684 20.1298C23.8684 20.017 24.0155 19.9219 24.1966 19.9219C24.3777 19.9219 24.5271 20.0148 24.5271 20.1298Z" fill="#DA840D"/>
<path d="M24.1331 21.6079C24.1486 21.6768 24.1418 21.7487 24.1136 21.8137C24.0855 21.8786 24.0374 21.9335 23.976 21.9706C23.9146 22.0077 23.843 22.0253 23.7709 22.0209C23.6989 22.0165 23.63 21.9903 23.5738 21.946C23.5176 21.9017 23.4769 21.8415 23.4572 21.7736C23.4376 21.7057 23.44 21.6335 23.4641 21.567C23.4883 21.5005 23.5329 21.443 23.5919 21.4024C23.651 21.3617 23.7214 21.34 23.7936 21.3402C23.8747 21.3327 23.9557 21.3565 24.0191 21.4065C24.0825 21.4565 24.1234 21.5288 24.1331 21.6079Z" fill="#DA840D"/>
<path d="M26.8763 21.1782C26.8622 21.2441 26.8292 21.3048 26.7812 21.3531C26.7332 21.4015 26.6722 21.4355 26.6052 21.4514C26.5382 21.4672 26.468 21.4641 26.4027 21.4425C26.3374 21.4209 26.2798 21.3816 26.2364 21.3292C26.193 21.2768 26.1658 21.2135 26.1578 21.1466C26.1497 21.0797 26.1613 21.012 26.1911 20.9512C26.2209 20.8905 26.2677 20.8392 26.3261 20.8034C26.3845 20.7676 26.4521 20.7488 26.521 20.749C26.626 20.7607 26.722 20.8123 26.7885 20.8925C26.855 20.9728 26.8865 21.0754 26.8763 21.1782Z" fill="#DA840D"/>
<path d="M26.6795 19.2454C26.6795 19.3339 26.5641 19.4047 26.4215 19.4047C26.2789 19.4047 26.1658 19.3339 26.1658 19.2454C26.1658 19.1569 26.2812 19.0884 26.4215 19.0884C26.5618 19.0884 26.6795 19.1658 26.6795 19.2454Z" fill="#DA840D"/>
<path d="M28.8523 19.7163C28.8523 20.0592 28.6961 20.3357 28.506 20.3357C28.3159 20.3357 28.1575 20.0592 28.1575 19.7163C28.1575 19.3734 28.3136 19.0947 28.506 19.0947C28.6984 19.0947 28.8523 19.3734 28.8523 19.7163Z" fill="#DA840D"/>
<path d="M29.724 19.0858C29.724 19.1298 29.7061 19.172 29.6743 19.2031C29.6425 19.2343 29.5993 19.2517 29.5543 19.2517C29.5093 19.2517 29.4661 19.2343 29.4342 19.2031C29.4024 19.172 29.3845 19.1298 29.3845 19.0858C29.3845 19.0418 29.4024 18.9996 29.4342 18.9685C29.4661 18.9374 29.5093 18.9199 29.5543 18.9199C29.5991 18.9205 29.642 18.9382 29.6737 18.9691C29.7054 19.0001 29.7234 19.042 29.724 19.0858Z" fill="#DA840D"/>
<path d="M24.0154 18.5574C24.0154 18.7144 23.8027 18.8449 23.5424 18.8449C23.2821 18.8449 23.0693 18.7144 23.0693 18.5574C23.0693 18.4003 23.2798 18.2676 23.5424 18.2676C23.8049 18.2676 24.0154 18.3981 24.0154 18.5574Z" fill="#DA840D"/>
<path d="M15.1407 17.0661C15.1407 17.1635 14.9755 17.2431 14.7718 17.2431C14.5681 17.2431 14.4028 17.1635 14.4028 17.0661C14.4028 16.9688 14.5681 16.8892 14.7718 16.8892C14.9755 16.8892 15.1407 16.9688 15.1407 17.0661Z" fill="#DA840D"/>
<path d="M17.3133 16.7102C17.3133 16.8097 17.1255 16.8894 16.8946 16.8894C16.6638 16.8894 16.4736 16.8097 16.4736 16.7102C16.4736 16.6106 16.6615 16.5332 16.8946 16.5332C17.1277 16.5332 17.3133 16.6128 17.3133 16.7102Z" fill="#DA840D"/>
<path d="M20.0478 17.1458C20.0478 17.2851 19.7943 17.4001 19.4797 17.4001C19.1651 17.4001 18.9116 17.2851 18.9116 17.1458C18.9116 17.0064 19.1674 16.8892 19.4797 16.8892C19.7921 16.8892 20.0478 17.0042 20.0478 17.1458Z" fill="#DA840D"/>
<path d="M22.0625 16.7102C22.0629 16.7458 22.0525 16.7807 22.0325 16.8106C22.0125 16.8404 21.9839 16.8637 21.9503 16.8775C21.9167 16.8913 21.8797 16.8951 21.8439 16.8882C21.8081 16.8814 21.7753 16.8643 21.7495 16.8391C21.7237 16.8139 21.7062 16.7818 21.6992 16.7468C21.6922 16.7118 21.696 16.6756 21.7102 16.6428C21.7243 16.61 21.7482 16.582 21.7787 16.5625C21.8092 16.543 21.8449 16.5328 21.8814 16.5332C21.9294 16.5332 21.9755 16.5519 22.0094 16.585C22.0434 16.6182 22.0625 16.6632 22.0625 16.7102Z" fill="#DA840D"/>
<path d="M21.6978 18.1102C21.6978 18.1965 21.5258 18.2672 21.3108 18.2672C21.0958 18.2672 20.926 18.1965 20.926 18.1102C20.926 18.0239 21.098 17.9531 21.3108 17.9531C21.5236 17.9531 21.6978 18.0239 21.6978 18.1102Z" fill="#DA840D"/>
<path d="M24.7239 16.6325C24.723 16.6839 24.7065 16.7338 24.6764 16.776C24.6463 16.8181 24.6041 16.8505 24.5551 16.8692C24.5062 16.8878 24.4526 16.8917 24.4013 16.8805C24.35 16.8693 24.3033 16.8434 24.2671 16.8062C24.2309 16.7689 24.2069 16.722 24.1981 16.6713C24.1893 16.6207 24.1961 16.5686 24.2176 16.5218C24.2392 16.4749 24.2745 16.4354 24.3191 16.4083C24.3638 16.3811 24.4156 16.3675 24.4682 16.3693C24.5026 16.3702 24.5366 16.3776 24.5681 16.3913C24.5997 16.405 24.6281 16.4247 24.6519 16.4491C24.6756 16.4736 24.6942 16.5023 24.7066 16.5338C24.7189 16.5653 24.7248 16.5988 24.7239 16.6325Z" fill="#DA840D"/>
<path d="M26.166 17.6768C26.166 17.721 26.0324 17.7564 25.8649 17.7564C25.6974 17.7564 25.5662 17.721 25.5662 17.6768C25.5662 17.6326 25.6997 17.5972 25.8649 17.5972C26.0302 17.5972 26.166 17.6326 26.166 17.6768Z" fill="#DA840D"/>
<path d="M27.1048 17.1544C27.1104 17.1777 27.1085 17.2021 27.0993 17.2243C27.09 17.2465 27.0739 17.2653 27.0532 17.2781C27.0325 17.2909 27.0082 17.2971 26.9838 17.2958C26.9593 17.2944 26.9359 17.2857 26.9167 17.2707C26.8976 17.2558 26.8837 17.2354 26.877 17.2123C26.8703 17.1893 26.8712 17.1648 26.8794 17.1422C26.8877 17.1197 26.9029 17.1002 26.923 17.0865C26.9431 17.0728 26.9671 17.0656 26.9916 17.0659C27.0185 17.0634 27.0454 17.0712 27.0665 17.0877C27.0876 17.1042 27.1014 17.1281 27.1048 17.1544Z" fill="#DA840D"/>
<path d="M26.1658 17.6764C26.1606 17.7244 26.1413 17.7699 26.1102 17.8073C26.0791 17.8448 26.0375 17.8727 25.9906 17.8876C25.9437 17.9025 25.8933 17.9038 25.8456 17.8914C25.7979 17.8789 25.7549 17.8533 25.7218 17.8175C25.6887 17.7817 25.6669 17.7373 25.659 17.6897C25.6512 17.6421 25.6576 17.5932 25.6775 17.5491C25.6974 17.5049 25.7299 17.4673 25.7712 17.4409C25.8125 17.4144 25.8607 17.4002 25.9101 17.3999C25.9455 17.4016 25.9802 17.4101 26.0122 17.4249C26.0442 17.4398 26.0729 17.4606 26.0967 17.4863C26.1204 17.512 26.1388 17.542 26.1506 17.5746C26.1625 17.6072 26.1677 17.6418 26.1658 17.6764Z" fill="#DA840D"/>
<path d="M27.6187 17.234C27.6187 17.3247 27.4783 17.4 27.3041 17.4C27.1298 17.4 26.9917 17.3247 26.9917 17.234C26.9917 17.1433 27.132 17.0659 27.3041 17.0659C27.4761 17.0659 27.6187 17.1411 27.6187 17.234Z" fill="#DA840D"/>
<path d="M35.0427 17.8383C35.0427 20.6941 28.8342 23.353 21.3582 23.353C13.8823 23.353 7.62402 20.4972 7.62402 17.6414C7.62402 14.7857 13.8823 12.9961 21.3582 12.9961C28.8342 12.9961 35.0427 14.9803 35.0427 17.8383Z" fill="#E3AC8A"/>
<path d="M34.8934 17.2853C34.8934 20.1433 28.8343 22.4594 21.3584 22.4594C13.8824 22.4594 7.82104 20.1433 7.82104 17.2853C7.82104 14.4274 13.8824 12.1113 21.3584 12.1113C28.8343 12.1113 34.8934 14.4274 34.8934 17.2853Z" fill="#DA840D"/>
<path d="M21.1613 20.6344C26.7077 20.6344 31.2039 18.9161 31.2039 16.7964C31.2039 14.6768 26.7077 12.9585 21.1613 12.9585C15.6149 12.9585 11.1187 14.6768 11.1187 16.7964C11.1187 18.9161 15.6149 20.6344 21.1613 20.6344Z" fill="#F0A508"/>
<path d="M14.403 18.2125C14.403 18.4337 14.1473 18.6261 13.8304 18.6261C13.5135 18.6261 13.26 18.4403 13.26 18.2125C13.26 17.9846 13.5158 17.7988 13.8304 17.7988C14.145 17.7988 14.403 17.9824 14.403 18.2125Z" fill="#DA840D"/>
<path d="M13.26 16.4692C13.2582 16.5305 13.238 16.5899 13.2018 16.64C13.1657 16.6901 13.1153 16.7287 13.0568 16.751C12.9984 16.7732 12.9345 16.7782 12.8732 16.7651C12.8119 16.7521 12.7559 16.7217 12.7122 16.6778C12.6684 16.6338 12.6389 16.5783 12.6273 16.518C12.6157 16.4578 12.6226 16.3955 12.647 16.339C12.6714 16.2825 12.7122 16.2343 12.7645 16.2005C12.8168 16.1666 12.8781 16.1485 12.9408 16.1484C13.0265 16.1502 13.108 16.1848 13.1677 16.2448C13.2274 16.3049 13.2606 16.3855 13.26 16.4692Z" fill="#DA840D"/>
<path d="M17.2253 18.7138C17.2325 18.8213 17.2066 18.9285 17.1507 19.0215C17.0948 19.1144 17.0117 19.1888 16.9121 19.2349C16.8124 19.2811 16.7009 19.2969 16.5919 19.2803C16.4829 19.2638 16.3816 19.2156 16.301 19.142C16.2204 19.0684 16.1643 18.9729 16.14 18.8678C16.1157 18.7626 16.1243 18.6528 16.1646 18.5525C16.205 18.4522 16.2752 18.3661 16.3663 18.3053C16.4573 18.2445 16.565 18.2119 16.6753 18.2117C16.8162 18.2075 16.9531 18.2579 17.0561 18.352C17.1592 18.446 17.22 18.5761 17.2253 18.7138Z" fill="#DA840D"/>
<path d="M16.0303 16.7209C16.0303 16.8581 15.8741 16.9709 15.684 16.9709C15.4939 16.9709 15.3354 16.8581 15.3354 16.7209C15.3354 16.5838 15.4916 16.4688 15.684 16.4688C15.8764 16.4688 16.0303 16.5904 16.0303 16.7209Z" fill="#DA840D"/>
<path d="M19.5295 17.918C19.5378 17.9875 19.5242 18.0577 19.4907 18.1195C19.4571 18.1813 19.4052 18.2317 19.3417 18.264C19.2782 18.2962 19.2061 18.3089 19.1351 18.3002C19.0641 18.2916 18.9974 18.262 18.944 18.2155C18.8905 18.169 18.8528 18.1077 18.8358 18.0398C18.8188 17.9718 18.8233 17.9004 18.8488 17.8351C18.8742 17.7697 18.9194 17.7134 18.9783 17.6737C19.0372 17.634 19.1071 17.6127 19.1787 17.6127C19.2664 17.6085 19.3524 17.6381 19.418 17.6952C19.4836 17.7523 19.5237 17.8323 19.5295 17.918Z" fill="#DA840D"/>
<path d="M19.6631 19.7471C19.6631 19.8886 19.4956 20.0037 19.2873 20.0037C19.0791 20.0037 18.9116 19.8886 18.9116 19.7471C18.9116 19.6055 19.0814 19.4927 19.2873 19.4927C19.4933 19.4927 19.6631 19.6055 19.6631 19.7471Z" fill="#DA840D"/>
<path d="M18.1648 17.0018C18.1612 17.0533 18.1422 17.1027 18.1101 17.1437C18.078 17.1848 18.0343 17.2157 17.9844 17.2326C17.9344 17.2496 17.8805 17.2518 17.8293 17.239C17.7781 17.2262 17.7319 17.1989 17.6964 17.1606C17.6609 17.1223 17.6378 17.0747 17.6298 17.0236C17.6218 16.9726 17.6294 16.9203 17.6516 16.8735C17.6738 16.8266 17.7096 16.7871 17.7545 16.76C17.7995 16.7328 17.8517 16.7192 17.9045 16.7208C17.9767 16.7254 18.0443 16.7573 18.0929 16.8097C18.1415 16.8622 18.1673 16.9311 18.1648 17.0018Z" fill="#DA840D"/>
<path d="M22.0621 17.5418C22.0621 17.6833 21.8991 17.7984 21.6977 17.7984C21.4962 17.7984 21.3333 17.6833 21.3333 17.5418C21.3333 17.4002 21.4962 17.2852 21.6977 17.2852C21.8991 17.2852 22.0621 17.4002 22.0621 17.5418Z" fill="#DA840D"/>
<path d="M22.0621 18.867C22.0621 18.9511 21.8991 19.0196 21.6977 19.0196C21.4962 19.0196 21.3333 18.9511 21.3333 18.867C21.3333 18.7829 21.4962 18.7144 21.6977 18.7144C21.8991 18.7144 22.0621 18.7829 22.0621 18.867Z" fill="#DA840D"/>
<path d="M24.5271 18.0045C24.5271 18.1196 24.38 18.2125 24.1966 18.2125C24.0133 18.2125 23.8684 18.1196 23.8684 18.0045C23.8684 17.8895 24.0155 17.7988 24.1966 17.7988C24.3777 17.7988 24.5271 17.8917 24.5271 18.0045Z" fill="#DA840D"/>
<path d="M24.1331 19.4814C24.1491 19.5503 24.1427 19.6223 24.1149 19.6875C24.0872 19.7527 24.0394 19.8079 23.9781 19.8454C23.9168 19.8828 23.8452 19.9008 23.773 19.8967C23.7009 19.8926 23.6318 19.8667 23.5754 19.8226C23.519 19.7785 23.478 19.7183 23.4581 19.6504C23.4382 19.5825 23.4403 19.5103 23.4643 19.4436C23.4883 19.377 23.5328 19.3193 23.5918 19.2785C23.6508 19.2377 23.7213 19.2158 23.7936 19.2159C23.8745 19.2078 23.9554 19.2311 24.0189 19.2808C24.0824 19.3304 24.1234 19.4025 24.1331 19.4814Z" fill="#DA840D"/>
<path d="M26.8764 19.0524C26.8623 19.1178 26.8296 19.178 26.7819 19.2259C26.7343 19.2739 26.6738 19.3077 26.6073 19.3234C26.5408 19.3391 26.4712 19.3362 26.4064 19.3148C26.3416 19.2935 26.2843 19.2546 26.2411 19.2028C26.198 19.1509 26.1707 19.0882 26.1625 19.0218C26.1543 18.9555 26.1655 18.8882 26.1948 18.8278C26.2241 18.7674 26.2703 18.7164 26.328 18.6806C26.3858 18.6448 26.4527 18.6257 26.5211 18.6255C26.6256 18.6372 26.7213 18.6884 26.7877 18.7682C26.8542 18.848 26.886 18.95 26.8764 19.0524Z" fill="#DA840D"/>
<path d="M26.6795 17.1282C26.6795 17.2145 26.5641 17.2853 26.4215 17.2853C26.2789 17.2853 26.1658 17.2145 26.1658 17.1282C26.1658 17.042 26.2812 16.9712 26.4215 16.9712C26.5618 16.9712 26.6795 17.0331 26.6795 17.1282Z" fill="#DA840D"/>
<path d="M28.8523 17.5906C28.8523 17.9334 28.6961 18.2122 28.506 18.2122C28.3159 18.2122 28.1575 17.9334 28.1575 17.5906C28.1575 17.2477 28.3136 16.9712 28.506 16.9712C28.6984 16.9712 28.8523 17.2543 28.8523 17.5906Z" fill="#DA840D"/>
<path d="M29.724 16.9618C29.7235 17.0056 29.7054 17.0475 29.6737 17.0785C29.642 17.1095 29.5991 17.1271 29.5543 17.1277C29.5207 17.1277 29.4879 17.118 29.46 17.0997C29.4321 17.0815 29.4103 17.0556 29.3974 17.0253C29.3846 16.995 29.3812 16.9616 29.3878 16.9294C29.3943 16.8973 29.4105 16.8677 29.4342 16.8445C29.458 16.8213 29.4882 16.8055 29.5212 16.7991C29.5541 16.7927 29.5882 16.796 29.6192 16.8085C29.6503 16.8211 29.6768 16.8423 29.6954 16.8696C29.7141 16.8969 29.724 16.929 29.724 16.9618Z" fill="#DA840D"/>
<path d="M24.0154 16.4316C24.0154 16.5909 23.8027 16.7214 23.5424 16.7214C23.2821 16.7214 23.0693 16.5909 23.0693 16.4316C23.0693 16.2723 23.2798 16.144 23.5424 16.144C23.8049 16.144 24.0154 16.2723 24.0154 16.4316Z" fill="#DA840D"/>
<path d="M15.1407 14.9401C15.1407 15.0397 14.9755 15.1193 14.7718 15.1193C14.5681 15.1193 14.4028 15.0397 14.4028 14.9401C14.4028 14.8406 14.5681 14.7632 14.7718 14.7632C14.9755 14.7632 15.1407 14.8428 15.1407 14.9401Z" fill="#DA840D"/>
<path d="M17.3133 14.5861C17.3133 14.6835 17.1255 14.7631 16.8946 14.7631C16.6638 14.7631 16.4736 14.6835 16.4736 14.5861C16.4736 14.4888 16.6615 14.4092 16.8946 14.4092C17.1277 14.4092 17.3133 14.4888 17.3133 14.5861Z" fill="#DA840D"/>
<path d="M20.0478 15.0198C20.0478 15.1614 19.7943 15.2764 19.4797 15.2764C19.1651 15.2764 18.9116 15.1614 18.9116 15.0198C18.9116 14.8782 19.1674 14.7632 19.4797 14.7632C19.7921 14.7632 20.0478 14.8782 20.0478 15.0198Z" fill="#DA840D"/>
<path d="M22.0625 14.5862C22.0629 14.6218 22.0525 14.6567 22.0325 14.6865C22.0125 14.7163 21.9839 14.7396 21.9503 14.7535C21.9167 14.7673 21.8797 14.771 21.8439 14.7642C21.8081 14.7574 21.7753 14.7402 21.7495 14.7151C21.7237 14.6899 21.7062 14.6577 21.6992 14.6228C21.6922 14.5878 21.696 14.5516 21.7102 14.5188C21.7243 14.4859 21.7482 14.458 21.7787 14.4385C21.8092 14.4189 21.8449 14.4088 21.8814 14.4092C21.9294 14.4092 21.9755 14.4278 22.0094 14.461C22.0434 14.4942 22.0625 14.5392 22.0625 14.5862Z" fill="#DA840D"/>
<path d="M21.6978 15.9864C21.6978 16.0727 21.5258 16.1435 21.3108 16.1435C21.0958 16.1435 20.926 16.0727 20.926 15.9864C20.926 15.9001 21.098 15.8271 21.3108 15.8271C21.5236 15.8271 21.6978 15.8979 21.6978 15.9864Z" fill="#DA840D"/>
<path d="M24.7239 14.5087C24.7244 14.5604 24.709 14.6109 24.6797 14.654C24.6505 14.697 24.6087 14.7305 24.5599 14.7501C24.511 14.7698 24.4572 14.7747 24.4055 14.7642C24.3537 14.7537 24.3063 14.7284 24.2695 14.6914C24.2326 14.6544 24.2079 14.6074 24.1985 14.5566C24.1892 14.5057 24.1956 14.4533 24.217 14.4061C24.2383 14.3589 24.2737 14.319 24.3185 14.2915C24.3632 14.2641 24.4154 14.2503 24.4682 14.2521C24.5368 14.2533 24.6022 14.2809 24.6501 14.3289C24.698 14.377 24.7246 14.4416 24.7239 14.5087Z" fill="#DA840D"/>
<path d="M26.166 15.5533C26.166 15.5953 26.0324 15.6307 25.8649 15.6307C25.6974 15.6307 25.5662 15.5953 25.5662 15.5533C25.5662 15.5112 25.6997 15.4736 25.8649 15.4736C26.0302 15.4736 26.166 15.509 26.166 15.5533Z" fill="#DA840D"/>
<path d="M27.1053 15.0423C27.1104 15.0656 27.108 15.09 27.0984 15.1119C27.0888 15.1339 27.0724 15.1523 27.0516 15.1648C27.0308 15.1772 27.0065 15.183 26.9821 15.1814C26.9577 15.1797 26.9345 15.1707 26.9156 15.1556C26.8967 15.1404 26.8831 15.1199 26.8767 15.0969C26.8703 15.0739 26.8713 15.0495 26.8797 15.027C26.8882 15.0046 26.9035 14.9853 26.9236 14.9718C26.9438 14.9583 26.9677 14.9512 26.9921 14.9516C27.0194 14.9491 27.0466 14.9573 27.0677 14.9742C27.0889 14.9912 27.1024 15.0157 27.1053 15.0423Z" fill="#DA840D"/>
<path d="M26.1658 15.5534C26.1606 15.6013 26.1413 15.6468 26.1102 15.6843C26.0791 15.7217 26.0375 15.7496 25.9906 15.7645C25.9437 15.7794 25.8933 15.7808 25.8456 15.7683C25.7979 15.7559 25.7549 15.7302 25.7218 15.6944C25.6887 15.6586 25.6669 15.6143 25.659 15.5666C25.6512 15.519 25.6576 15.4702 25.6775 15.426C25.6974 15.3819 25.7299 15.3443 25.7712 15.3178C25.8125 15.2914 25.8607 15.2771 25.9101 15.2769C25.9455 15.2786 25.9802 15.2871 26.0122 15.3019C26.0442 15.3167 26.0729 15.3376 26.0967 15.3632C26.1204 15.3889 26.1388 15.4189 26.1506 15.4516C26.1625 15.4842 26.1677 15.5188 26.1658 15.5534Z" fill="#DA840D"/>
<path d="M27.6187 15.1081C27.6187 15.201 27.4783 15.2762 27.3041 15.2762C27.1298 15.2762 26.9917 15.201 26.9917 15.1081C26.9917 15.0151 27.132 14.9399 27.3041 14.9399C27.4761 14.9399 27.6187 15.0151 27.6187 15.1081Z" fill="#DA840D"/>
<path d="M35.2578 14.0423C35.2578 16.8981 29.047 19.557 21.5711 19.557C14.0951 19.557 7.83911 16.7012 7.83911 13.8433C7.83911 10.9853 14.0951 9.20898 21.5711 9.20898C29.047 9.20898 35.2578 11.1844 35.2578 14.0423Z" fill="#E3AC8A"/>
<path d="M35.106 13.4939C35.106 16.3519 29.0446 18.6679 21.5687 18.6679C14.0927 18.6679 8.03589 16.3474 8.03589 13.4939C8.03589 10.6403 14.095 8.31543 21.5709 8.31543C29.0469 8.31543 35.106 10.6315 35.106 13.4939Z" fill="#DA840D"/>
<path d="M31.4191 13.0003C31.4191 15.1195 26.9217 16.8382 21.3764 16.8382C15.8311 16.8382 11.3406 15.1195 11.3406 13.0003C11.3406 10.8811 15.8311 9.16016 21.3764 9.16016C26.9217 9.16016 31.4191 10.8789 31.4191 13.0003Z" fill="#F0A508"/>
<path d="M14.6156 14.4161C14.6156 14.6373 14.3621 14.8298 14.0452 14.8298C13.7284 14.8298 13.4749 14.6439 13.4749 14.4161C13.4749 14.1883 13.7306 14.0024 14.0565 14.0024C14.3825 14.0024 14.6156 14.186 14.6156 14.4161Z" fill="#DA840D"/>
<path d="M13.4751 12.6728C13.4725 12.7337 13.4516 12.7925 13.4152 12.8419C13.3787 12.8913 13.3283 12.9292 13.27 12.9509C13.2118 12.9726 13.1483 12.9772 13.0875 12.9641C13.0266 12.9509 12.971 12.9207 12.9275 12.877C12.8841 12.8333 12.8546 12.7782 12.8429 12.7184C12.8311 12.6585 12.8376 12.5966 12.8614 12.5403C12.8852 12.484 12.9254 12.4358 12.9769 12.4016C13.0285 12.3673 13.0891 12.3486 13.1515 12.3477C13.1947 12.3479 13.2374 12.3566 13.2771 12.3732C13.3168 12.3897 13.3528 12.4138 13.3829 12.4441C13.413 12.4743 13.4367 12.5101 13.4525 12.5494C13.4684 12.5887 13.476 12.6306 13.4751 12.6728Z" fill="#DA840D"/>
<path d="M17.4516 14.9184C17.4584 15.0254 17.4321 15.132 17.3762 15.2243C17.3203 15.3166 17.2374 15.3903 17.1381 15.436C17.0388 15.4816 16.9277 15.4971 16.8193 15.4803C16.711 15.4636 16.6102 15.4154 16.5302 15.342C16.4502 15.2686 16.3945 15.1735 16.3705 15.0688C16.3464 14.9642 16.3551 14.8549 16.3954 14.7551C16.4357 14.6554 16.5057 14.5697 16.5963 14.5093C16.687 14.4489 16.7941 14.4165 16.9039 14.4163C17.0446 14.4121 17.1812 14.4626 17.2839 14.5567C17.3866 14.6508 17.4469 14.7809 17.4516 14.9184Z" fill="#DA840D"/>
<path d="M16.2454 12.9228C16.2454 13.0622 16.0892 13.175 15.8968 13.175C15.7044 13.175 15.5505 13.0622 15.5505 12.9228C15.5505 12.7835 15.7067 12.6729 15.8968 12.6729C16.087 12.6729 16.2454 12.7857 16.2454 12.9228Z" fill="#DA840D"/>
<path d="M19.7446 14.1108C19.7528 14.1803 19.7393 14.2506 19.7058 14.3124C19.6722 14.3742 19.6202 14.4246 19.5568 14.4568C19.4933 14.4891 19.4212 14.5017 19.3502 14.4931C19.2792 14.4844 19.2125 14.4549 19.1591 14.4084C19.1056 14.3619 19.0679 14.3006 19.0509 14.2326C19.0339 14.1647 19.0384 14.0933 19.0639 14.0279C19.0893 13.9626 19.1345 13.9063 19.1934 13.8666C19.2523 13.8269 19.3222 13.8056 19.3938 13.8056C19.4815 13.8013 19.5675 13.8309 19.6331 13.888C19.6987 13.9451 19.7388 14.0252 19.7446 14.1108Z" fill="#DA840D"/>
<path d="M19.8779 15.9516C19.8779 16.0932 19.7104 16.2082 19.5022 16.2082C19.294 16.2082 19.1265 16.0932 19.1265 15.9516C19.1265 15.81 19.294 15.7061 19.5022 15.7061C19.7104 15.7061 19.8779 15.8122 19.8779 15.9516Z" fill="#DA840D"/>
<path d="M18.3797 13.2061C18.3797 13.2759 18.3514 13.3429 18.3009 13.3922C18.2503 13.4416 18.1818 13.4693 18.1104 13.4693C18.039 13.4693 17.9705 13.4416 17.92 13.3922C17.8694 13.3429 17.8411 13.2759 17.8411 13.2061C17.8411 13.1363 17.8694 13.0693 17.92 13.02C17.9705 12.9706 18.039 12.9429 18.1104 12.9429C18.1818 12.9429 18.2503 12.9706 18.3009 13.02C18.3514 13.0693 18.3797 13.1363 18.3797 13.2061Z" fill="#DA840D"/>
<path d="M22.2771 13.7458C22.2771 13.8874 22.1142 14.0024 21.9127 14.0024C21.7113 14.0024 21.5483 13.8874 21.5483 13.7458C21.5483 13.6043 21.7113 13.4937 21.9127 13.4937C22.1142 13.4937 22.2771 13.6043 22.2771 13.7458Z" fill="#DA840D"/>
<path d="M22.2771 15.0706C22.2771 15.1547 22.1142 15.2232 21.9127 15.2232C21.7113 15.2232 21.5483 15.1547 21.5483 15.0706C21.5483 14.9865 21.7113 14.918 21.9127 14.918C22.1142 14.918 22.2771 14.9865 22.2771 15.0706Z" fill="#DA840D"/>
<path d="M24.742 14.2082C24.742 14.3232 24.5948 14.4161 24.4115 14.4161C24.2282 14.4161 24.0811 14.3232 24.0811 14.2082C24.0811 14.0931 24.2304 14.0024 24.4115 14.0024C24.5926 14.0024 24.742 14.0953 24.742 14.2082Z" fill="#DA840D"/>
<path d="M24.3481 15.6857C24.3645 15.755 24.3585 15.8276 24.3308 15.8934C24.3032 15.9592 24.2553 16.015 24.1937 16.053C24.1322 16.091 24.0601 16.1094 23.9874 16.1055C23.9147 16.1017 23.8451 16.0758 23.7881 16.0316C23.7311 15.9873 23.6896 15.9268 23.6694 15.8585C23.6491 15.7901 23.6511 15.7173 23.6751 15.6502C23.6991 15.583 23.7439 15.5248 23.8032 15.4836C23.8625 15.4424 23.9335 15.4203 24.0063 15.4203C24.0876 15.4115 24.1691 15.4345 24.2331 15.4843C24.2971 15.534 24.3384 15.6064 24.3481 15.6857Z" fill="#DA840D"/>
<path d="M27.0917 15.2632C27.0752 15.3277 27.0406 15.3864 26.9918 15.4326C26.943 15.4789 26.8818 15.5109 26.8154 15.5249C26.7489 15.539 26.6797 15.5346 26.6157 15.5123C26.5516 15.49 26.4953 15.4505 26.4529 15.3985C26.4106 15.3465 26.384 15.2839 26.3762 15.2179C26.3684 15.1519 26.3796 15.085 26.4086 15.0249C26.4376 14.9648 26.4833 14.9138 26.5404 14.8778C26.5975 14.8417 26.6639 14.822 26.7318 14.8208C26.7855 14.826 26.8376 14.8417 26.8849 14.8669C26.9323 14.8921 26.974 14.9263 27.0076 14.9676C27.0411 15.0089 27.0659 15.0563 27.0803 15.1071C27.0948 15.1578 27.0987 15.2109 27.0917 15.2632Z" fill="#DA840D"/>
<path d="M26.8947 13.3323C26.8947 13.4186 26.7792 13.4894 26.6366 13.4894C26.494 13.4894 26.3809 13.4186 26.3809 13.3323C26.3809 13.2461 26.494 13.1753 26.6366 13.1753C26.7792 13.1753 26.8947 13.2461 26.8947 13.3323Z" fill="#DA840D"/>
<path d="M29.0676 13.7947C29.0676 14.1375 28.9115 14.4163 28.7191 14.4163C28.5267 14.4163 28.3728 14.1375 28.3728 13.7947C28.3728 13.4518 28.529 13.1753 28.7191 13.1753C28.9092 13.1753 29.0676 13.4518 29.0676 13.7947Z" fill="#DA840D"/>
<path d="M29.9368 13.1664C29.9363 13.1987 29.9261 13.2301 29.9075 13.2567C29.8888 13.2833 29.8625 13.304 29.8318 13.316C29.8012 13.3281 29.7676 13.331 29.7352 13.3244C29.7029 13.3179 29.6733 13.3021 29.6501 13.2791C29.6269 13.2562 29.6111 13.227 29.6049 13.1953C29.5986 13.1636 29.602 13.1308 29.6148 13.101C29.6275 13.0713 29.649 13.0458 29.6765 13.0279C29.704 13.01 29.7363 13.0005 29.7693 13.0005C29.8139 13.0011 29.8565 13.0188 29.8879 13.0499C29.9192 13.0809 29.9368 13.1228 29.9368 13.1664Z" fill="#DA840D"/>
<path d="M24.2282 12.6352C24.2282 12.7945 24.0178 12.9228 23.7575 12.9228C23.4972 12.9228 23.2844 12.7945 23.2844 12.6352C23.2844 12.476 23.4949 12.3477 23.7575 12.3477C24.02 12.3477 24.2282 12.476 24.2282 12.6352Z" fill="#DA840D"/>
<path d="M15.3558 11.1465C15.3558 11.2438 15.1906 11.3234 14.9869 11.3234C14.7832 11.3234 14.6157 11.2438 14.6157 11.1465C14.6157 11.0491 14.7809 10.9673 14.9869 10.9673C15.1929 10.9673 15.3558 11.0469 15.3558 11.1465Z" fill="#DA840D"/>
<path d="M17.5287 10.7907C17.5287 10.8903 17.3408 10.9677 17.1077 10.9677C16.8746 10.9677 16.689 10.8903 16.689 10.7907C16.689 10.6912 16.8768 10.6138 17.1077 10.6138C17.3386 10.6138 17.5287 10.6934 17.5287 10.7907Z" fill="#DA840D"/>
<path d="M20.2627 11.2239C20.2627 11.3655 20.0092 11.4805 19.6946 11.4805C19.38 11.4805 19.1265 11.3655 19.1265 11.2239C19.1265 11.0823 19.3822 10.9673 19.6946 10.9673C20.0069 10.9673 20.2627 11.0823 20.2627 11.2239Z" fill="#DA840D"/>
<path d="M22.2773 10.7902C22.2722 10.834 22.2509 10.8744 22.2173 10.9038C22.1837 10.9332 22.1401 10.9495 22.095 10.9495C22.0499 10.9495 22.0064 10.9332 21.9728 10.9038C21.9392 10.8744 21.9178 10.834 21.9128 10.7902C21.9178 10.7464 21.9392 10.7059 21.9728 10.6765C22.0064 10.6471 22.0499 10.6309 22.095 10.6309C22.1401 10.6309 22.1837 10.6471 22.2173 10.6765C22.2509 10.7059 22.2722 10.7464 22.2773 10.7902Z" fill="#DA840D"/>
<path d="M21.9128 12.1883C21.9128 12.2768 21.7407 12.3476 21.5257 12.3476C21.3107 12.3476 21.1387 12.2768 21.1387 12.1883C21.1387 12.0998 21.313 12.0312 21.5257 12.0312C21.7385 12.0312 21.9128 12.102 21.9128 12.1883Z" fill="#DA840D"/>
<path d="M24.939 10.7127C24.9395 10.764 24.9243 10.8142 24.8955 10.8571C24.8667 10.8999 24.8255 10.9334 24.7771 10.9534C24.7288 10.9733 24.6755 10.9787 24.624 10.969C24.5724 10.9593 24.5251 10.9348 24.4878 10.8987C24.4505 10.8626 24.4251 10.8165 24.4147 10.7662C24.4043 10.7159 24.4094 10.6638 24.4294 10.6164C24.4493 10.569 24.4833 10.5284 24.5269 10.4999C24.5705 10.4713 24.6218 10.4561 24.6742 10.4561C24.709 10.4555 24.7435 10.4617 24.7758 10.4744C24.808 10.487 24.8373 10.5059 24.862 10.5298C24.8867 10.5537 24.9062 10.5822 24.9195 10.6136C24.9327 10.645 24.9393 10.6787 24.939 10.7127Z" fill="#DA840D"/>
<path d="M26.3806 11.7574C26.3806 11.7994 26.2448 11.8348 26.0795 11.8348C25.9143 11.8348 25.7808 11.7994 25.7808 11.7574C25.7808 11.7153 25.9143 11.6777 26.0795 11.6777C26.2448 11.6777 26.3806 11.7242 26.3806 11.7574Z" fill="#DA840D"/>
<path d="M27.3201 11.2353C27.3131 11.2593 27.2982 11.2805 27.2778 11.2955C27.2574 11.3106 27.2325 11.3187 27.2069 11.3187C27.1814 11.3187 27.1565 11.3106 27.136 11.2955C27.1156 11.2805 27.1008 11.2593 27.0938 11.2353C27.1008 11.2113 27.1156 11.1901 27.136 11.1751C27.1565 11.16 27.1814 11.1519 27.2069 11.1519C27.2325 11.1519 27.2574 11.16 27.2778 11.1751C27.2982 11.1901 27.3131 11.2113 27.3201 11.2353Z" fill="#DA840D"/>
<path d="M26.3807 11.757C26.3754 11.8049 26.3561 11.8504 26.325 11.8879C26.2939 11.9254 26.2524 11.9532 26.2054 11.9681C26.1585 11.9831 26.1081 11.9844 26.0604 11.9719C26.0127 11.9595 25.9697 11.9338 25.9366 11.8981C25.9035 11.8623 25.8817 11.8179 25.8739 11.7702C25.866 11.7226 25.8724 11.6738 25.8923 11.6296C25.9122 11.5855 25.9448 11.5479 25.9861 11.5214C26.0273 11.495 26.0756 11.4807 26.1249 11.4805C26.1603 11.4822 26.195 11.4907 26.227 11.5055C26.259 11.5203 26.2877 11.5412 26.3115 11.5669C26.3353 11.5925 26.3536 11.6226 26.3655 11.6552C26.3774 11.6878 26.3825 11.7224 26.3807 11.757Z" fill="#DA840D"/>
<path d="M27.8341 11.3124C27.8341 11.4053 27.6937 11.4805 27.5194 11.4805C27.3452 11.4805 27.2048 11.4053 27.2048 11.3124C27.2048 11.2195 27.3452 11.1465 27.5194 11.1465C27.6937 11.1465 27.8341 11.2195 27.8341 11.3124Z" fill="#DA840D"/>
<path d="M35.2578 11.6025C35.2578 14.4604 29.047 17.1171 21.5711 17.1171C14.0951 17.1171 7.83911 14.2636 7.83911 11.4056C7.83911 8.5476 14.0951 6.76025 21.5711 6.76025C29.047 6.76025 35.2578 8.74448 35.2578 11.6025Z" fill="#E3AC8A"/>
<path d="M35.106 11.0605C35.106 13.9163 29.0446 16.2345 21.5687 16.2345C14.0927 16.2345 8.03589 13.9074 8.03589 11.0605C8.03589 8.21358 14.095 5.88428 21.5709 5.88428C29.0469 5.88428 35.106 8.18482 35.106 11.0605Z" fill="#DA840D"/>
<path d="M31.4191 10.5604C31.4191 12.6795 26.9217 14.3983 21.3764 14.3983C15.8311 14.3983 11.3406 12.6795 11.3406 10.5604C11.3406 8.4412 15.8311 6.72021 21.3764 6.72021C26.9217 6.72021 31.4191 8.43899 31.4191 10.5604Z" fill="#F0A508"/>
<path d="M14.6156 11.9766C14.6156 12.1979 14.3621 12.3903 14.0452 12.3903C13.7284 12.3903 13.4749 12.2045 13.4749 11.9766C13.4749 11.7488 13.7306 11.563 14.0452 11.563C14.3598 11.563 14.6156 11.7488 14.6156 11.9766Z" fill="#DA840D"/>
<path d="M13.4751 10.2334C13.4725 10.2942 13.4516 10.353 13.4152 10.4024C13.3787 10.4519 13.3283 10.4898 13.27 10.5115C13.2118 10.5332 13.1483 10.5378 13.0875 10.5246C13.0266 10.5115 12.971 10.4812 12.9275 10.4376C12.8841 10.3939 12.8546 10.3387 12.8429 10.2789C12.8311 10.2191 12.8376 10.1572 12.8614 10.1009C12.8852 10.0446 12.9254 9.99635 12.9769 9.9621C13.0285 9.92786 13.0891 9.90912 13.1515 9.9082C13.1947 9.90849 13.2374 9.91716 13.2771 9.93371C13.3168 9.95026 13.3528 9.97437 13.3829 10.0046C13.413 10.0349 13.4367 10.0707 13.4525 10.11C13.4684 10.1492 13.476 10.1912 13.4751 10.2334Z" fill="#DA840D"/>
<path d="M16.8974 12.9804C17.1999 12.9804 17.4451 12.7555 17.4451 12.4782C17.4451 12.2009 17.1999 11.9761 16.8974 11.9761C16.5948 11.9761 16.3496 12.2009 16.3496 12.4782C16.3496 12.7555 16.5948 12.9804 16.8974 12.9804Z" fill="#DA840D"/>
<path d="M16.2454 10.4856C16.2454 10.6227 16.0892 10.7355 15.8968 10.7355C15.7044 10.7355 15.5505 10.6183 15.5505 10.4856C15.5505 10.3529 15.7067 10.2334 15.8968 10.2334C16.087 10.2334 16.2454 10.3462 16.2454 10.4856Z" fill="#DA840D"/>
<path d="M19.7446 11.6714C19.7528 11.7409 19.7393 11.8112 19.7058 11.8729C19.6722 11.9347 19.6202 11.9851 19.5568 12.0174C19.4933 12.0496 19.4212 12.0623 19.3502 12.0536C19.2792 12.045 19.2125 12.0155 19.1591 11.9689C19.1056 11.9224 19.0679 11.8611 19.0509 11.7932C19.0339 11.7252 19.0384 11.6539 19.0639 11.5885C19.0893 11.5231 19.1345 11.4668 19.1934 11.4271C19.2523 11.3874 19.3222 11.3661 19.3938 11.3661C19.4815 11.3619 19.5675 11.3915 19.6331 11.4486C19.6987 11.5057 19.7388 11.5857 19.7446 11.6714Z" fill="#DA840D"/>
<path d="M19.8779 13.5112C19.8779 13.6528 19.7104 13.7678 19.5022 13.7678C19.294 13.7678 19.1265 13.6528 19.1265 13.5112C19.1265 13.3697 19.294 13.2568 19.5022 13.2568C19.7104 13.2568 19.8779 13.3719 19.8779 13.5112Z" fill="#DA840D"/>
<path d="M18.38 10.768C18.376 10.819 18.3569 10.8678 18.325 10.9084C18.2931 10.949 18.2498 10.9796 18.2003 10.9966C18.1509 11.0135 18.0975 11.0159 18.0467 11.0036C17.9958 10.9913 17.9498 10.9648 17.9141 10.9273C17.8785 10.8898 17.8548 10.843 17.8459 10.7926C17.8371 10.7421 17.8435 10.6902 17.8643 10.6433C17.8852 10.5963 17.9196 10.5564 17.9633 10.5282C18.0071 10.5001 18.0582 10.485 18.1106 10.4849C18.1847 10.4877 18.2545 10.5191 18.305 10.5722C18.3555 10.6252 18.3824 10.6956 18.38 10.768Z" fill="#DA840D"/>
<path d="M22.2771 11.3061C22.2771 11.4477 22.1142 11.5627 21.9127 11.5627C21.7113 11.5627 21.5483 11.4477 21.5483 11.3061C21.5483 11.1645 21.7113 11.0605 21.9127 11.0605C22.1142 11.0605 22.2771 11.1645 22.2771 11.3061Z" fill="#DA840D"/>
<path d="M22.2771 12.6311C22.2771 12.7152 22.1142 12.7838 21.9127 12.7838C21.7113 12.7838 21.5483 12.7152 21.5483 12.6311C21.5483 12.5471 21.7113 12.4785 21.9127 12.4785C22.1142 12.4785 22.2771 12.5471 22.2771 12.6311Z" fill="#DA840D"/>
<path d="M24.742 11.7687C24.742 11.8837 24.5948 11.9766 24.4115 11.9766C24.2282 11.9766 24.0811 11.8837 24.0811 11.7687C24.0811 11.6537 24.2304 11.563 24.4115 11.563C24.5926 11.563 24.742 11.6559 24.742 11.7687Z" fill="#DA840D"/>
<path d="M24.3481 13.2463C24.3645 13.3156 24.3585 13.3882 24.3308 13.454C24.3032 13.5198 24.2553 13.5755 24.1937 13.6135C24.1322 13.6515 24.0601 13.6699 23.9874 13.6661C23.9147 13.6622 23.8451 13.6364 23.7881 13.5921C23.7311 13.5478 23.6896 13.4874 23.6694 13.419C23.6491 13.3507 23.6511 13.2779 23.6751 13.2107C23.6991 13.1436 23.7439 13.0853 23.8032 13.0441C23.8625 13.0029 23.9335 12.9808 24.0063 12.9808C24.0876 12.9721 24.1691 12.9951 24.2331 13.0448C24.2971 13.0945 24.3384 13.1669 24.3481 13.2463Z" fill="#DA840D"/>
<path d="M27.0917 12.8301C27.0752 12.8946 27.0406 12.9533 26.9918 12.9995C26.9429 13.0458 26.8818 13.0778 26.8154 13.0919C26.7489 13.1059 26.6797 13.1016 26.6157 13.0792C26.5516 13.0569 26.4953 13.0174 26.4529 12.9654C26.4106 12.9134 26.384 12.8508 26.3762 12.7848C26.3684 12.7188 26.3796 12.6519 26.4086 12.5918C26.4376 12.5317 26.4833 12.4807 26.5404 12.4447C26.5975 12.4086 26.6638 12.3889 26.7318 12.3877C26.7856 12.3926 26.8379 12.4081 26.8854 12.4332C26.9329 12.4583 26.9747 12.4926 27.0083 12.5339C27.0419 12.5752 27.0667 12.6228 27.081 12.6737C27.0953 12.7246 27.099 12.7778 27.0917 12.8301Z" fill="#DA840D"/>
<path d="M26.8947 10.8924C26.8947 10.9809 26.7792 11.0517 26.6366 11.0517C26.494 11.0517 26.3809 10.9809 26.3809 10.8924C26.3809 10.8039 26.494 10.7354 26.6366 10.7354C26.7792 10.7354 26.8947 10.8061 26.8947 10.8924Z" fill="#DA840D"/>
<path d="M29.0676 11.3547C29.0676 11.6976 28.9115 11.9763 28.7191 11.9763C28.5267 11.9763 28.3728 11.6976 28.3728 11.3547C28.3728 11.0119 28.529 10.7354 28.7191 10.7354C28.9092 10.7354 29.0676 11.0141 29.0676 11.3547Z" fill="#DA840D"/>
<path d="M29.9368 10.7265C29.9364 10.7587 29.9262 10.7902 29.9075 10.8168C29.8888 10.8434 29.8625 10.8641 29.8318 10.8761C29.8012 10.8882 29.7676 10.8911 29.7353 10.8845C29.7029 10.878 29.6733 10.8622 29.6501 10.8392C29.6269 10.8162 29.6111 10.7871 29.6049 10.7554C29.5986 10.7237 29.602 10.6909 29.6148 10.6611C29.6275 10.6313 29.649 10.6059 29.6765 10.588C29.704 10.5701 29.7363 10.5605 29.7693 10.5605C29.7915 10.5605 29.8135 10.5649 29.8339 10.5732C29.8544 10.5816 29.873 10.5938 29.8885 10.6093C29.9041 10.6247 29.9164 10.643 29.9247 10.6631C29.933 10.6832 29.9371 10.7048 29.9368 10.7265Z" fill="#DA840D"/>
<path d="M24.2282 10.1958C24.2282 10.355 24.0178 10.4856 23.7575 10.4856C23.4972 10.4856 23.2844 10.355 23.2844 10.1958C23.2844 10.0365 23.4949 9.9082 23.7575 9.9082C24.02 9.9082 24.2282 10.0365 24.2282 10.1958Z" fill="#DA840D"/>
<path d="M15.3558 8.70675C15.3558 8.80408 15.1906 8.88371 14.9869 8.88371C14.7832 8.88371 14.6157 8.80408 14.6157 8.70675C14.6157 8.60942 14.7809 8.52979 14.9869 8.52979C15.1929 8.52979 15.3558 8.60942 15.3558 8.70675Z" fill="#DA840D"/>
<path d="M17.5287 8.35079C17.5287 8.45033 17.3408 8.52997 17.1077 8.52997C16.8746 8.52997 16.689 8.45033 16.689 8.35079C16.689 8.25125 16.8768 8.17383 17.1077 8.17383C17.3386 8.17383 17.5287 8.25346 17.5287 8.35079Z" fill="#DA840D"/>
<path d="M20.2627 8.78417C20.2627 8.92574 20.0092 9.04077 19.6946 9.04077C19.38 9.04077 19.1265 8.92574 19.1265 8.78417C19.1265 8.6426 19.3822 8.52979 19.6946 8.52979C20.0069 8.52979 20.2627 8.6426 20.2627 8.78417Z" fill="#DA840D"/>
<path d="M22.2773 8.35081C22.2777 8.38643 22.2673 8.42137 22.2473 8.45117C22.2274 8.48098 22.1988 8.50428 22.1652 8.51812C22.1316 8.53195 22.0945 8.53569 22.0588 8.52884C22.023 8.522 21.9901 8.50489 21.9643 8.4797C21.9386 8.45451 21.9211 8.42238 21.9141 8.38742C21.9071 8.35246 21.9109 8.31625 21.925 8.28342C21.9392 8.25059 21.963 8.22263 21.9935 8.20311C22.024 8.1836 22.0598 8.1734 22.0962 8.17384C22.1442 8.17384 22.1903 8.19249 22.2243 8.22567C22.2582 8.25886 22.2773 8.30387 22.2773 8.35081Z" fill="#DA840D"/>
<path d="M21.9128 9.75058C21.9128 9.83685 21.7407 9.90763 21.5257 9.90763C21.3107 9.90763 21.1387 9.83685 21.1387 9.75058C21.1387 9.66431 21.313 9.59131 21.5257 9.59131C21.7385 9.59131 21.9128 9.66209 21.9128 9.75058Z" fill="#DA840D"/>
<path d="M24.939 8.27321C24.9395 8.32449 24.9243 8.37475 24.8955 8.4176C24.8667 8.46045 24.8255 8.49397 24.7771 8.5139C24.7288 8.53382 24.6755 8.53927 24.624 8.52953C24.5724 8.5198 24.5251 8.49532 24.4878 8.45922C24.4505 8.42311 24.4251 8.377 24.4147 8.32674C24.4043 8.27647 24.4094 8.22432 24.4294 8.1769C24.4493 8.12948 24.4833 8.08892 24.5269 8.06039C24.5705 8.03185 24.6218 8.01661 24.6742 8.01661C24.7089 8.01632 24.7433 8.02274 24.7754 8.0355C24.8075 8.04827 24.8367 8.06712 24.8613 8.09098C24.886 8.11484 24.9055 8.14322 24.9188 8.1745C24.9322 8.20578 24.939 8.23933 24.939 8.27321Z" fill="#DA840D"/>
<path d="M26.3806 9.31743C26.3806 9.35946 26.2448 9.39485 26.0795 9.39485C25.9143 9.39485 25.7808 9.35946 25.7808 9.31743C25.7808 9.2754 25.9143 9.23779 26.0795 9.23779C26.2448 9.23779 26.3806 9.27319 26.3806 9.31743Z" fill="#DA840D"/>
<path d="M27.3203 8.79502C27.326 8.81823 27.3241 8.84257 27.3149 8.86469C27.3058 8.8868 27.2898 8.90559 27.2693 8.91845C27.2487 8.93131 27.2246 8.9376 27.2002 8.93646C27.1758 8.93531 27.1524 8.92679 27.1332 8.91207C27.114 8.89735 27.0999 8.87715 27.093 8.85429C27.0861 8.83142 27.0866 8.80701 27.0944 8.78443C27.1023 8.76185 27.1172 8.74222 27.137 8.72827C27.1568 8.71431 27.1805 8.70672 27.2049 8.70653C27.2321 8.70398 27.2592 8.71174 27.2807 8.72822C27.3022 8.74469 27.3164 8.7686 27.3203 8.79502Z" fill="#DA840D"/>
<path d="M26.3807 9.31703C26.3754 9.365 26.3561 9.41047 26.325 9.44794C26.2939 9.48541 26.2524 9.51328 26.2054 9.5282C26.1585 9.54311 26.1081 9.54443 26.0604 9.532C26.0127 9.51956 25.9697 9.4939 25.9366 9.45811C25.9035 9.42232 25.8817 9.37793 25.8739 9.3303C25.866 9.28267 25.8724 9.23384 25.8923 9.18969C25.9122 9.14554 25.9448 9.10796 25.9861 9.0815C26.0273 9.05503 26.0756 9.0408 26.1249 9.04053C26.1603 9.04223 26.195 9.05073 26.227 9.06556C26.259 9.08038 26.2877 9.10123 26.3115 9.12692C26.3353 9.1526 26.3536 9.18262 26.3655 9.21524C26.3774 9.24786 26.3825 9.28245 26.3807 9.31703Z" fill="#DA840D"/>
<path d="M27.8341 8.87245C27.8341 8.96536 27.6937 9.04058 27.5194 9.04058C27.3452 9.04058 27.2048 8.96536 27.2048 8.87245C27.2048 8.77954 27.3452 8.70654 27.5194 8.70654C27.6937 8.70654 27.8341 8.78176 27.8341 8.87245Z" fill="#DA840D"/>
<path d="M34.7349 9.08964C34.4181 6.34226 28.7415 4.15674 21.7838 4.15674C15.2743 4.15674 9.88748 6.07017 8.95949 8.56317C8.74513 8.90009 8.62928 9.28796 8.62451 9.68468C8.62451 12.5427 14.6225 15.3984 21.7838 15.3984C28.9452 15.3984 34.8934 12.744 34.8934 9.88156C34.8929 9.61011 34.8391 9.34127 34.7349 9.08964Z" fill="#C66720"/>
<path d="M35.5341 8.5941C35.5341 11.4521 29.3234 14.111 21.8474 14.111C14.3715 14.111 8.11548 11.2552 8.11548 8.40608C8.11548 5.55694 14.3715 3.76074 21.8474 3.76074C29.3234 3.76074 35.5341 5.73611 35.5341 8.5941Z" fill="#E3AC8A"/>
<path d="M35.4139 8.04347C35.4139 10.9015 29.5291 13.0604 22.0599 13.0604C14.5908 13.0604 8.5249 10.7444 8.5249 7.88642C8.5249 5.02843 14.584 2.7124 22.0599 2.7124C29.5359 2.7124 35.4139 5.18549 35.4139 8.04347Z" fill="#DA840D"/>
<path d="M21.6528 11.3897C27.1992 11.3897 31.6954 9.67142 31.6954 7.5518C31.6954 5.43217 27.1992 3.71387 21.6528 3.71387C16.1064 3.71387 11.6101 5.43217 11.6101 7.5518C11.6101 9.67142 16.1064 11.3897 21.6528 11.3897Z" fill="#F0A508"/>
<path d="M14.8917 8.96737C14.8917 9.18858 14.636 9.38324 14.3213 9.38324C14.0067 9.38324 13.751 9.19742 13.751 8.96737C13.751 8.73731 14.0067 8.55371 14.3213 8.55371C14.636 8.55371 14.8917 8.73953 14.8917 8.96737Z" fill="#DA840D"/>
<path d="M13.7509 7.2268C13.7478 7.28774 13.7265 7.34645 13.6896 7.39566C13.6527 7.44488 13.6019 7.48244 13.5433 7.50369C13.4848 7.52494 13.4212 7.52895 13.3604 7.51522C13.2995 7.5015 13.2442 7.47063 13.2011 7.42646C13.1581 7.38229 13.1292 7.32674 13.1181 7.26669C13.107 7.20665 13.1142 7.14475 13.1388 7.08865C13.1633 7.03256 13.2042 6.98473 13.2562 6.95109C13.3083 6.91746 13.3694 6.89949 13.4318 6.89941C13.4748 6.90027 13.5172 6.90944 13.5565 6.92639C13.5959 6.94334 13.6314 6.96773 13.6611 6.99817C13.6908 7.0286 13.714 7.06447 13.7294 7.10371C13.7448 7.14295 13.7521 7.18478 13.7509 7.2268Z" fill="#DA840D"/>
<path d="M17.721 9.47188C17.7274 9.57886 17.7007 9.68523 17.6445 9.77724C17.5883 9.86925 17.5051 9.94266 17.4058 9.98797C17.3064 10.0333 17.1954 10.0484 17.0872 10.0314C16.9789 10.0143 16.8784 9.96596 16.7986 9.89248C16.7188 9.819 16.6634 9.7238 16.6396 9.6192C16.6157 9.5146 16.6246 9.40542 16.6649 9.30579C16.7053 9.20615 16.7753 9.12065 16.8659 9.06034C16.9566 9.00004 17.0636 8.9677 17.1733 8.96752C17.2431 8.96546 17.3127 8.97687 17.3781 9.0011C17.4434 9.02534 17.5032 9.06192 17.5541 9.10876C17.605 9.1556 17.6459 9.21178 17.6745 9.27408C17.7032 9.33639 17.719 9.4036 17.721 9.47188Z" fill="#DA840D"/>
<path d="M16.5215 7.47701C16.5215 7.61637 16.3653 7.72698 16.173 7.72698C15.9806 7.72698 15.8267 7.61637 15.8267 7.47701C15.8267 7.33765 15.9828 7.22705 16.173 7.22705C16.3631 7.22705 16.5215 7.33987 16.5215 7.47701Z" fill="#DA840D"/>
<path d="M20.0205 8.66223C20.0287 8.73171 20.0152 8.802 19.9816 8.86379C19.9481 8.92558 19.8961 8.97594 19.8326 9.00821C19.7691 9.04048 19.6971 9.05313 19.6261 9.04448C19.5551 9.03583 19.4884 9.00629 19.4349 8.95978C19.3815 8.91327 19.3438 8.85198 19.3268 8.78403C19.3098 8.71609 19.3143 8.6447 19.3397 8.57932C19.3652 8.51395 19.4104 8.45768 19.4693 8.41796C19.5282 8.37825 19.5981 8.35698 19.6696 8.35696C19.7575 8.35212 19.8438 8.38154 19.9096 8.43875C19.9753 8.49597 20.0152 8.57633 20.0205 8.66223Z" fill="#DA840D"/>
<path d="M20.1543 10.5051C20.1543 10.6467 19.9868 10.7617 19.7786 10.7617C19.5703 10.7617 19.4028 10.6467 19.4028 10.5051C19.4028 10.3636 19.5703 10.2485 19.7786 10.2485C19.9868 10.2485 20.1543 10.3636 20.1543 10.5051Z" fill="#DA840D"/>
<path d="M18.6561 7.7602C18.6521 7.81123 18.633 7.86003 18.6011 7.90063C18.5692 7.94122 18.5259 7.97184 18.4765 7.98875C18.427 8.00566 18.3736 8.00811 18.3228 7.99582C18.272 7.98352 18.2259 7.95701 18.1902 7.91952C18.1546 7.88204 18.1309 7.8352 18.122 7.78476C18.1132 7.73431 18.1196 7.68244 18.1404 7.63548C18.1613 7.58853 18.1957 7.54854 18.2394 7.5204C18.2832 7.49226 18.3344 7.4772 18.3867 7.47705C18.4235 7.47819 18.4597 7.48644 18.4931 7.50132C18.5266 7.5162 18.5568 7.53741 18.5818 7.56374C18.6068 7.59007 18.6263 7.62098 18.6391 7.6547C18.6518 7.68842 18.6576 7.72428 18.6561 7.7602Z" fill="#DA840D"/>
<path d="M22.5533 8.29957C22.5533 8.44114 22.3903 8.55396 22.1889 8.55396C21.9874 8.55396 21.8245 8.44114 21.8245 8.29957C21.8245 8.158 21.9874 8.04297 22.1889 8.04297C22.3903 8.04297 22.5533 8.158 22.5533 8.29957Z" fill="#DA840D"/>
<path d="M22.5533 9.6248C22.5533 9.70886 22.3903 9.77743 22.1889 9.77743C21.9874 9.77743 21.8245 9.70886 21.8245 9.6248C21.8245 9.54074 21.9874 9.47217 22.1889 9.47217C22.3903 9.47217 22.5533 9.54074 22.5533 9.6248Z" fill="#DA840D"/>
<path d="M25.0183 8.76165C25.0183 8.87667 24.869 8.96737 24.6879 8.96737C24.5068 8.96737 24.3574 8.87667 24.3574 8.76165C24.3574 8.64662 24.5068 8.55371 24.6879 8.55371C24.869 8.55371 25.0183 8.64662 25.0183 8.76165Z" fill="#DA840D"/>
<path d="M24.6245 10.2397C24.6409 10.309 24.6349 10.3816 24.6072 10.4474C24.5796 10.5132 24.5317 10.569 24.4701 10.607C24.4086 10.645 24.3365 10.6633 24.2638 10.6595C24.1911 10.6557 24.1214 10.6298 24.0644 10.5856C24.0075 10.5413 23.966 10.4808 23.9457 10.4125C23.9255 10.3441 23.9275 10.2713 23.9515 10.2042C23.9755 10.137 24.0202 10.0788 24.0796 10.0376C24.1389 9.99638 24.2099 9.97425 24.2827 9.97425C24.3639 9.96611 24.445 9.98933 24.5089 10.0389C24.5728 10.0885 24.6143 10.1606 24.6245 10.2397Z" fill="#DA840D"/>
<path d="M27.3674 9.81072C27.3533 9.87611 27.3205 9.93627 27.2729 9.98422C27.2253 10.0322 27.1647 10.066 27.0982 10.0817C27.0318 10.0974 26.9621 10.0944 26.8973 10.0731C26.8325 10.0518 26.7752 10.0129 26.7321 9.96106C26.6889 9.90922 26.6617 9.84649 26.6535 9.78014C26.6453 9.7138 26.6565 9.64653 26.6858 9.58614C26.7151 9.52575 26.7612 9.4747 26.819 9.43889C26.8767 9.40308 26.9436 9.38397 27.012 9.38379C27.1166 9.3955 27.2123 9.44672 27.2787 9.5265C27.3451 9.60629 27.3769 9.70829 27.3674 9.81072Z" fill="#DA840D"/>
<path d="M27.1683 7.88632C27.1683 7.97259 27.0551 8.04338 26.9125 8.04338C26.7699 8.04338 26.6567 7.97259 26.6567 7.88632C26.6567 7.80005 26.7699 7.72705 26.9125 7.72705C27.0551 7.72705 27.1683 7.79784 27.1683 7.88632Z" fill="#DA840D"/>
<path d="M29.3438 8.34864C29.3438 8.69151 29.1876 8.96802 28.9952 8.96802C28.8028 8.96802 28.6489 8.69151 28.6489 8.34864C28.6489 8.00577 28.8051 7.72705 28.9952 7.72705C29.1853 7.72705 29.3438 8.00577 29.3438 8.34864Z" fill="#DA840D"/>
<path d="M30.2129 7.72037C30.212 7.75254 30.2014 7.78374 30.1825 7.81007C30.1635 7.8364 30.1371 7.85669 30.1064 7.86841C30.0757 7.88012 30.0422 7.88274 30.01 7.87593C29.9778 7.86913 29.9484 7.8532 29.9254 7.83014C29.9024 7.80708 29.8869 7.77791 29.8808 7.74628C29.8747 7.71466 29.8783 7.68197 29.8911 7.65232C29.9039 7.62266 29.9254 7.59736 29.9528 7.57956C29.9802 7.56176 30.0124 7.55226 30.0454 7.55225C30.0677 7.55253 30.0897 7.55711 30.1102 7.56572C30.1306 7.57432 30.1492 7.58679 30.1647 7.6024C30.1803 7.61801 30.1925 7.63646 30.2008 7.6567C30.2091 7.67695 30.2132 7.69858 30.2129 7.72037Z" fill="#DA840D"/>
<path d="M24.5043 7.18919C24.5043 7.34846 24.2938 7.47676 24.0335 7.47676C23.7732 7.47676 23.5627 7.34846 23.5627 7.18919C23.5627 7.02992 23.7732 6.89941 24.0358 6.89941C24.2983 6.89941 24.5043 7.02992 24.5043 7.18919Z" fill="#DA840D"/>
<path d="M15.641 5.69845C15.641 5.79578 15.4758 5.87541 15.2721 5.87541C15.0684 5.87541 14.9009 5.79578 14.9009 5.69845C14.9009 5.60112 15.0661 5.52148 15.2721 5.52148C15.478 5.52148 15.641 5.60112 15.641 5.69845Z" fill="#DA840D"/>
<path d="M17.805 5.34445C17.805 5.44178 17.6172 5.52141 17.3841 5.52141C17.1509 5.52141 16.9653 5.44178 16.9653 5.34445C16.9653 5.24711 17.1532 5.16748 17.3841 5.16748C17.6149 5.16748 17.805 5.24711 17.805 5.34445Z" fill="#DA840D"/>
<path d="M20.539 5.77802C20.539 5.9196 20.2855 6.03462 19.9709 6.03462C19.6563 6.03462 19.4028 5.9196 19.4028 5.77802C19.4028 5.63645 19.6563 5.53027 19.9709 5.53027C20.2855 5.53027 20.539 5.63645 20.539 5.77802Z" fill="#DA840D"/>
<path d="M22.5534 5.34397C22.5539 5.3795 22.5435 5.41435 22.5236 5.44411C22.5038 5.47386 22.4753 5.49717 22.4418 5.51107C22.4084 5.52498 22.3714 5.52884 22.3357 5.52218C22.3 5.51552 22.2671 5.49863 22.2413 5.47366C22.2154 5.44869 22.1977 5.41677 22.1905 5.38196C22.1832 5.34714 22.1867 5.311 22.2005 5.27813C22.2143 5.24527 22.2378 5.21715 22.268 5.19736C22.2982 5.17758 22.3337 5.16701 22.3701 5.16701C22.3941 5.16671 22.4178 5.17107 22.4401 5.17984C22.4623 5.1886 22.4825 5.20159 22.4996 5.21805C22.5166 5.23451 22.5302 5.25412 22.5394 5.27573C22.5487 5.29735 22.5534 5.32054 22.5534 5.34397Z" fill="#DA840D"/>
<path d="M22.1889 6.74251C22.1889 6.83099 22.0169 6.89956 21.8018 6.89956C21.5868 6.89956 21.4148 6.83099 21.4148 6.74251C21.4148 6.65402 21.5891 6.58545 21.8018 6.58545C22.0146 6.58545 22.1889 6.65624 22.1889 6.74251Z" fill="#DA840D"/>
<path d="M25.2151 5.26465C25.216 5.31602 25.2013 5.36649 25.1727 5.40963C25.1442 5.45276 25.1031 5.48662 25.0548 5.50689C25.0065 5.52716 24.9531 5.53292 24.9015 5.52344C24.8498 5.51396 24.8022 5.48967 24.7647 5.45365C24.7272 5.41764 24.7016 5.37154 24.691 5.32122C24.6804 5.2709 24.6854 5.21863 24.7053 5.17108C24.7252 5.12353 24.7591 5.08285 24.8027 5.05421C24.8464 5.02557 24.8977 5.01027 24.9503 5.01026C24.9848 5.00997 25.019 5.01632 25.051 5.02895C25.0829 5.04157 25.112 5.06023 25.1366 5.08385C25.1612 5.10748 25.1808 5.1356 25.1943 5.16662C25.2077 5.19764 25.2148 5.23095 25.2151 5.26465Z" fill="#DA840D"/>
<path d="M26.6569 6.30838C26.6569 6.35262 26.5211 6.38801 26.3559 6.38801C26.1907 6.38801 26.0571 6.35262 26.0571 6.30838C26.0571 6.26414 26.1907 6.23096 26.3559 6.23096C26.5211 6.23096 26.6569 6.26635 26.6569 6.30838Z" fill="#DA840D"/>
<path d="M27.5962 5.7872C27.6018 5.81041 27.6 5.83476 27.5908 5.85687C27.5817 5.87899 27.5657 5.89777 27.5451 5.91063C27.5246 5.92349 27.5004 5.92978 27.4761 5.92864C27.4517 5.9275 27.4283 5.91898 27.4091 5.90425C27.3899 5.88953 27.3758 5.86934 27.3689 5.84647C27.3619 5.8236 27.3624 5.79919 27.3703 5.77661C27.3782 5.75404 27.3931 5.73441 27.4128 5.72046C27.4326 5.7065 27.4564 5.6989 27.4808 5.69872C27.508 5.69617 27.5351 5.70393 27.5566 5.7204C27.5781 5.73687 27.5923 5.76079 27.5962 5.7872Z" fill="#DA840D"/>
<path d="M26.6569 6.3091C26.6602 6.34375 26.6561 6.3787 26.6449 6.41172C26.6336 6.44473 26.6154 6.47508 26.5914 6.50083C26.5674 6.52657 26.5382 6.54713 26.5057 6.56121C26.4731 6.57528 26.4379 6.58255 26.4022 6.58255C26.3666 6.58255 26.3314 6.57528 26.2988 6.56121C26.2663 6.54713 26.2371 6.52657 26.2131 6.50083C26.1891 6.47508 26.1709 6.44473 26.1596 6.41172C26.1484 6.3787 26.1443 6.34375 26.1476 6.3091C26.1443 6.27444 26.1484 6.23949 26.1596 6.20648C26.1709 6.17346 26.1891 6.14311 26.2131 6.11737C26.2371 6.09162 26.2663 6.07106 26.2988 6.05699C26.3314 6.04291 26.3666 6.03564 26.4022 6.03564C26.4379 6.03564 26.4731 6.04291 26.5057 6.05699C26.5382 6.07106 26.5674 6.09162 26.5914 6.11737C26.6154 6.14311 26.6336 6.17346 26.6449 6.20648C26.6561 6.23949 26.6602 6.27444 26.6569 6.3091Z" fill="#DA840D"/>
<path d="M28.1077 5.86636C28.1077 5.95927 27.9696 6.03448 27.7953 6.03448C27.621 6.03448 27.4807 5.95927 27.4807 5.86636C27.4807 5.77345 27.621 5.69824 27.7953 5.69824C27.9696 5.69824 28.1077 5.77345 28.1077 5.86636Z" fill="#DA840D"/>
<path d="M35.475 5.8383C35.475 7.58141 33.1664 9.2493 29.6695 10.2845C27.109 11.0107 24.4544 11.3705 21.7884 11.353C19.0112 11.353 16.7297 10.6385 14.4256 10.4681C10.5823 10.1762 8.0564 7.43762 8.0564 5.64143C8.0564 2.78344 14.3147 0.996094 21.7884 0.996094C29.2621 0.996094 35.475 2.98031 35.475 5.8383Z" fill="#E3AC8A"/>
<path d="M35.3031 5.45966C35.3031 8.31764 29.2417 10.6337 21.7658 10.6337C14.2898 10.6337 8.23071 8.31764 8.23071 5.45966C8.23071 2.60167 14.283 0.285645 21.7658 0.285645C29.2485 0.285645 35.3031 2.60167 35.3031 5.45966Z" fill="#DA840D"/>
<path d="M31.6138 4.97051C31.6138 7.08967 27.1165 8.80844 21.5712 8.80844C16.0259 8.80844 11.5286 7.08967 11.5286 4.97051C11.5286 2.85136 16.0236 1.13037 21.5712 1.13037C27.1188 1.13037 31.6138 2.84914 31.6138 4.97051Z" fill="#F0A508"/>
<path d="M14.8104 6.38631C14.8104 6.60752 14.5547 6.79997 14.2401 6.79997C13.9254 6.79997 13.6697 6.61416 13.6697 6.38631C13.6697 6.15847 13.9254 5.97266 14.2401 5.97266C14.5547 5.97266 14.8104 6.15626 14.8104 6.38631Z" fill="#DA840D"/>
<path d="M13.6695 4.64548C13.6668 4.70654 13.6459 4.76549 13.6092 4.815C13.5726 4.86452 13.5219 4.90242 13.4634 4.92401C13.4049 4.94559 13.3412 4.94991 13.2802 4.93641C13.2192 4.92292 13.1636 4.89222 13.1203 4.84812C13.077 4.80401 13.048 4.74846 13.0367 4.68834C13.0255 4.62823 13.0325 4.56621 13.057 4.50999C13.0815 4.45376 13.1224 4.40582 13.1745 4.37209C13.2267 4.33837 13.2878 4.32037 13.3504 4.32031C13.3932 4.32117 13.4354 4.33027 13.4746 4.34708C13.5138 4.36389 13.5492 4.38808 13.5789 4.41828C13.6085 4.44848 13.6318 4.48409 13.6473 4.52307C13.6629 4.56205 13.6704 4.60365 13.6695 4.64548Z" fill="#DA840D"/>
<path d="M17.6396 6.88861C17.6464 6.99565 17.6201 7.10222 17.5642 7.19451C17.5083 7.28679 17.4254 7.36054 17.3261 7.40619C17.2268 7.45184 17.1157 7.46729 17.0073 7.45054C16.899 7.43378 16.7982 7.3856 16.7182 7.31222C16.6381 7.23885 16.5825 7.14368 16.5585 7.03904C16.5344 6.93439 16.5431 6.82511 16.5834 6.72534C16.6237 6.62558 16.6937 6.53993 16.7843 6.47951C16.875 6.41909 16.9821 6.38668 17.0919 6.38647C17.2326 6.38229 17.3692 6.4328 17.4719 6.52692C17.5746 6.62105 17.6349 6.75111 17.6396 6.88861Z" fill="#DA840D"/>
<path d="M16.4402 4.89547C16.4402 5.03262 16.284 5.14543 16.0917 5.14543C15.8993 5.14543 15.7454 5.03262 15.7454 4.89547C15.7454 4.75832 15.9015 4.64551 16.0939 4.64551C16.2863 4.64551 16.4402 4.75611 16.4402 4.89547Z" fill="#DA840D"/>
<path d="M19.9415 6.08056C19.9493 6.14957 19.9354 6.21926 19.9018 6.28042C19.8682 6.34158 19.8164 6.39133 19.7532 6.42308C19.6901 6.45483 19.6185 6.46709 19.548 6.45824C19.4776 6.44939 19.4115 6.41985 19.3586 6.37352C19.3057 6.32719 19.2685 6.26625 19.2518 6.19877C19.2351 6.13129 19.2397 6.06045 19.2651 5.99561C19.2905 5.93077 19.3354 5.87499 19.394 5.83566C19.4525 5.79632 19.5219 5.77527 19.5929 5.7753C19.6804 5.77107 19.7661 5.80075 19.8314 5.85791C19.8967 5.91506 19.9362 5.99507 19.9415 6.08056Z" fill="#DA840D"/>
<path d="M20.0727 7.92089C20.0727 8.06246 19.9052 8.17748 19.697 8.17748C19.4888 8.17748 19.3213 8.06246 19.3213 7.92089C19.3213 7.77932 19.4888 7.6665 19.697 7.6665C19.9052 7.6665 20.0727 7.78153 20.0727 7.92089Z" fill="#DA840D"/>
<path d="M18.5835 5.17644C18.58 5.22761 18.5612 5.27666 18.5296 5.31755C18.4979 5.35845 18.4547 5.38943 18.4053 5.40666C18.3559 5.4239 18.3024 5.42666 18.2514 5.41459C18.2004 5.40252 18.1541 5.37615 18.1182 5.33873C18.0823 5.30131 18.0584 5.25446 18.0494 5.20394C18.0404 5.15341 18.0467 5.10142 18.0675 5.05434C18.0883 5.00726 18.1227 4.96715 18.1666 4.93893C18.2104 4.91072 18.2617 4.89562 18.3141 4.89551C18.3507 4.89665 18.3867 4.90483 18.42 4.91957C18.4533 4.93431 18.4834 4.95532 18.5084 4.98142C18.5334 5.00751 18.5529 5.03816 18.5658 5.07162C18.5787 5.10509 18.5847 5.14071 18.5835 5.17644Z" fill="#DA840D"/>
<path d="M22.472 5.71607C22.472 5.85764 22.309 5.97267 22.1075 5.97267C21.9061 5.97267 21.7522 5.85764 21.7522 5.71607C21.7522 5.5745 21.9152 5.45947 22.1166 5.45947C22.318 5.45947 22.472 5.5745 22.472 5.71607Z" fill="#DA840D"/>
<path d="M22.472 7.04082C22.472 7.12488 22.309 7.19345 22.1075 7.19345C21.9061 7.19345 21.7522 7.12488 21.7522 7.04082C21.7522 6.95676 21.9152 6.88818 22.1166 6.88818C22.318 6.88818 22.472 6.95676 22.472 7.04082Z" fill="#DA840D"/>
<path d="M24.9368 6.17838C24.9368 6.29341 24.7874 6.38631 24.6063 6.38631C24.4253 6.38631 24.2759 6.29341 24.2759 6.17838C24.2759 6.06335 24.4253 5.97266 24.6063 5.97266C24.7874 5.97266 24.9368 6.06556 24.9368 6.17838Z" fill="#DA840D"/>
<path d="M24.543 7.6559C24.5235 7.72935 24.4795 7.79437 24.4181 7.84079C24.3566 7.8872 24.2812 7.91239 24.2035 7.91239C24.1259 7.91239 24.0504 7.8872 23.989 7.84079C23.9275 7.79437 23.8836 7.72935 23.864 7.6559C23.8836 7.58245 23.9275 7.51743 23.989 7.47101C24.0504 7.4246 24.1259 7.39941 24.2035 7.39941C24.2812 7.39941 24.3566 7.4246 24.4181 7.47101C24.4795 7.51743 24.5235 7.58245 24.543 7.6559Z" fill="#DA840D"/>
<path d="M27.2862 7.22898C27.2965 7.28026 27.295 7.33314 27.2819 7.38381C27.2689 7.43449 27.2445 7.4817 27.2105 7.52206C27.1765 7.56242 27.1338 7.59492 27.0855 7.61724C27.0371 7.63955 26.9843 7.65113 26.9308 7.65113C26.8773 7.65113 26.8245 7.63955 26.7762 7.61724C26.7278 7.59492 26.6851 7.56242 26.6511 7.52206C26.6172 7.4817 26.5928 7.43449 26.5797 7.38381C26.5666 7.33314 26.5652 7.28026 26.5755 7.22898C26.5633 7.17684 26.5634 7.12269 26.5756 7.07057C26.5878 7.01845 26.6119 6.96968 26.646 6.92789C26.6802 6.8861 26.7235 6.85236 26.7728 6.82918C26.8221 6.80599 26.8761 6.79395 26.9308 6.79395C26.9855 6.79395 27.0395 6.80599 27.0888 6.82918C27.1381 6.85236 27.1815 6.8861 27.2156 6.92789C27.2497 6.96968 27.2738 7.01845 27.286 7.07057C27.2982 7.12269 27.2983 7.17684 27.2862 7.22898Z" fill="#DA840D"/>
<path d="M27.087 5.30891C27.087 5.39518 26.9738 5.46597 26.8312 5.46597C26.6886 5.46597 26.5754 5.39518 26.5754 5.30891C26.5754 5.22264 26.6886 5.15186 26.8312 5.15186C26.9738 5.15186 27.087 5.21601 27.087 5.30891Z" fill="#DA840D"/>
<path d="M29.262 5.76489C29.262 6.10776 29.1058 6.38648 28.9134 6.38648C28.721 6.38648 28.5671 6.10776 28.5671 5.76489C28.5671 5.42202 28.721 5.14551 28.9134 5.14551C29.1058 5.14551 29.262 5.42202 29.262 5.76489Z" fill="#DA840D"/>
<path d="M30.1265 5.13661C30.126 5.16889 30.1158 5.20031 30.0972 5.22694C30.0785 5.25357 30.0522 5.2742 30.0215 5.28625C29.9909 5.2983 29.9573 5.30123 29.9249 5.29467C29.8926 5.2881 29.863 5.27234 29.8398 5.24936C29.8166 5.22639 29.8008 5.19722 29.7946 5.16553C29.7883 5.13383 29.7917 5.10104 29.8045 5.07125C29.8172 5.04147 29.8387 5.01604 29.8662 4.99814C29.8937 4.98025 29.926 4.97071 29.959 4.9707C30.0036 4.97128 30.0462 4.98902 30.0776 5.02007C30.1089 5.05112 30.1265 5.09299 30.1265 5.13661Z" fill="#DA840D"/>
<path d="M24.4228 4.60544C24.4228 4.76471 24.2123 4.89522 23.9498 4.89522C23.6872 4.89522 23.479 4.76471 23.479 4.60544C23.479 4.44617 23.6895 4.31787 23.9498 4.31787C24.2101 4.31787 24.4228 4.44617 24.4228 4.60544Z" fill="#DA840D"/>
<path d="M15.5507 3.11717C15.5507 3.2145 15.3854 3.29413 15.1795 3.29413C14.9735 3.29413 14.8105 3.2145 14.8105 3.11717C14.8105 3.01983 14.9758 2.93799 15.1795 2.93799C15.3832 2.93799 15.5507 3.01762 15.5507 3.11717Z" fill="#DA840D"/>
<path d="M17.7233 2.76046C17.7233 2.86001 17.5355 2.93743 17.3023 2.93743C17.0692 2.93743 16.8813 2.86001 16.8813 2.76046C16.8813 2.66092 17.0715 2.5835 17.3023 2.5835C17.5332 2.5835 17.7233 2.65428 17.7233 2.76046Z" fill="#DA840D"/>
<path d="M20.4575 3.19459C20.4575 3.33616 20.204 3.45119 19.8894 3.45119C19.5748 3.45119 19.3213 3.33616 19.3213 3.19459C19.3213 3.05302 19.5748 2.93799 19.8894 2.93799C20.204 2.93799 20.4575 3.05302 20.4575 3.19459Z" fill="#DA840D"/>
<path d="M22.4719 2.76047C22.4723 2.796 22.462 2.83086 22.4421 2.86061C22.4222 2.89037 22.3937 2.91368 22.3603 2.92758C22.3268 2.94148 22.2899 2.94535 22.2542 2.93869C22.2185 2.93202 22.1856 2.91514 22.1597 2.89017C22.1339 2.8652 22.1162 2.83328 22.1089 2.79846C22.1017 2.76365 22.1052 2.72751 22.119 2.69464C22.1328 2.66177 22.1563 2.63365 22.1865 2.61387C22.2167 2.59408 22.2522 2.58351 22.2885 2.58351C22.3125 2.58322 22.3363 2.58758 22.3585 2.59634C22.3808 2.6051 22.401 2.61809 22.4181 2.63455C22.4351 2.65101 22.4486 2.67062 22.4579 2.69224C22.4671 2.71385 22.4719 2.73705 22.4719 2.76047Z" fill="#DA840D"/>
<path d="M22.1073 4.16073C22.1073 4.247 21.933 4.31779 21.7203 4.31779C21.5075 4.31779 21.3333 4.247 21.3333 4.16073C21.3333 4.07446 21.5075 4.00146 21.7203 4.00146C21.933 4.00146 22.1073 4.07225 22.1073 4.16073Z" fill="#DA840D"/>
<path d="M25.1315 2.68357C25.1328 2.73458 25.1186 2.78483 25.0906 2.82789C25.0625 2.87095 25.022 2.90487 24.9742 2.92531C24.9263 2.94575 24.8733 2.95179 24.822 2.94265C24.7706 2.93351 24.7232 2.90961 24.6858 2.87401C24.6484 2.8384 24.6227 2.7927 24.612 2.74275C24.6013 2.69281 24.6061 2.64088 24.6258 2.5936C24.6454 2.54633 24.6791 2.50585 24.7224 2.47735C24.7657 2.44885 24.8167 2.43362 24.8689 2.4336C24.9376 2.43301 25.0037 2.45894 25.0528 2.50576C25.102 2.55258 25.1303 2.61648 25.1315 2.68357Z" fill="#DA840D"/>
<path d="M26.5752 3.72758C26.5752 3.76961 26.4394 3.80501 26.2742 3.80501C26.1089 3.80501 25.9731 3.76961 25.9731 3.72758C25.9731 3.68555 26.1089 3.64795 26.2742 3.64795C26.4394 3.64795 26.5752 3.68334 26.5752 3.72758Z" fill="#DA840D"/>
<path d="M27.5147 3.20517C27.5203 3.22838 27.5184 3.25273 27.5093 3.27484C27.5001 3.29695 27.4842 3.31574 27.4636 3.3286C27.443 3.34146 27.4189 3.34775 27.3945 3.34661C27.3701 3.34546 27.3467 3.33694 27.3275 3.32222C27.3083 3.3075 27.2943 3.28731 27.2873 3.26444C27.2804 3.24157 27.2809 3.21716 27.2888 3.19458C27.2966 3.172 27.3115 3.15238 27.3313 3.13842C27.3511 3.12447 27.3748 3.11687 27.3993 3.11669C27.4264 3.11414 27.4536 3.1219 27.4751 3.13837C27.4966 3.15484 27.5107 3.17876 27.5147 3.20517Z" fill="#DA840D"/>
<path d="M26.5755 3.72768C26.5703 3.77565 26.5509 3.82112 26.5198 3.85859C26.4887 3.89606 26.4472 3.92393 26.4003 3.93885C26.3533 3.95376 26.303 3.95508 26.2553 3.94265C26.2076 3.93021 26.1646 3.90455 26.1315 3.86876C26.0984 3.83297 26.0766 3.78858 26.0687 3.74095C26.0608 3.69332 26.0672 3.64448 26.0871 3.60033C26.1071 3.55619 26.1396 3.51861 26.1809 3.49214C26.2221 3.46567 26.2704 3.45144 26.3197 3.45117C26.3551 3.45287 26.3898 3.46138 26.4218 3.4762C26.4539 3.49103 26.4826 3.51188 26.5063 3.53756C26.5301 3.56325 26.5484 3.59326 26.5603 3.62589C26.5722 3.65851 26.5773 3.6931 26.5755 3.72768Z" fill="#DA840D"/>
<path d="M28.0261 3.2826C28.0261 3.37551 27.8858 3.45072 27.7138 3.45072C27.5418 3.45072 27.3992 3.37551 27.3992 3.2826C27.3992 3.1897 27.5395 3.1167 27.7138 3.1167C27.8881 3.1167 28.0261 3.1897 28.0261 3.2826Z" fill="#DA840D"/>
<path d="M23.8208 17.1064C23.7695 16.9153 23.6502 16.7484 23.4842 16.6357C23.3182 16.5229 23.1166 16.4718 22.9155 16.4914C21.5574 16.5865 21.4443 18.8096 21.9218 19.7807C22.064 19.8882 22.2428 19.9384 22.4217 19.9212C22.6006 19.9039 22.7659 19.8204 22.8838 19.6878C23.3183 19.2122 23.4564 18.5243 23.6103 17.9182C23.6858 17.6498 23.7559 17.3792 23.8208 17.1064Z" fill="#EEBE30"/>
<path d="M33.9021 5.55454C33.4299 5.37618 32.9944 5.11617 32.6165 4.78696C32.1649 4.35893 31.7486 3.89664 31.3717 3.40442C30.8081 2.72752 29.9887 2.46208 29.1286 2.36253C28.1712 2.24972 27.1821 2.45765 26.2179 2.40899C25.7008 2.39523 25.1941 2.26422 24.7377 2.0263C24.285 1.77413 23.9297 1.36268 23.5426 1.00654C22.7844 0.342921 21.8224 0.342921 20.865 0.1925C20.2308 0.0830893 19.5894 0.0187708 18.9457 5.09503e-05C18.287 -0.0154335 17.135 -0.0242817 16.6936 0.58846C16.2047 0.809666 16.0327 1.39808 15.9218 1.89358C15.8593 2.30243 15.7601 2.70511 15.6253 3.09694C15.4242 3.54256 15.1131 3.93247 14.7199 4.23173C13.8576 4.93295 12.7915 5.309 11.816 5.79787C11.0238 6.19383 10.0528 6.75569 9.62732 7.54982C9.37156 8.02542 9.40098 8.83946 9.85366 9.19117C10.4127 9.61147 10.8382 8.81955 10.9582 8.41916C11.0691 8.05639 11.1098 7.68697 11.4109 7.41489C11.8164 7.07081 12.2984 6.8239 12.8187 6.69375C13.2555 6.5743 13.724 6.5743 14.1541 6.44379C14.6703 6.25389 15.1559 5.9924 15.5959 5.66736C16.1119 5.33112 16.6144 5.00374 17.2278 4.85774C17.737 4.74271 18.5247 4.76041 18.9253 5.14089C19.145 5.40099 19.3341 5.68444 19.4889 5.98589C19.6954 6.26707 19.9688 6.49484 20.2856 6.64951C20.9239 7.00565 21.6549 7.16271 22.3226 7.48567C22.5459 7.59911 22.7383 7.7629 22.884 7.96348C22.9066 7.99666 22.927 8.02984 22.9473 8.06523C22.9638 8.09028 22.9789 8.11612 22.9926 8.14266C23.7214 9.45662 22.8047 10.848 22.8296 12.235C22.8296 12.9826 23.3842 14.2059 24.3212 13.6065C24.3846 13.5666 24.4434 13.5224 24.5023 13.4782C24.6087 12.5093 24.6947 11.5161 25.0387 10.6025C25.3624 9.75304 25.8037 8.96776 25.7562 8.03205C25.729 7.51664 25.4778 7.04326 25.4167 6.53449C25.3307 5.82663 25.9825 5.50588 26.5688 5.36652C27.4052 5.14898 28.2917 5.2081 29.0902 5.53463C30.5931 6.13853 31.8062 7.38392 33.4766 7.58964C34.1375 7.67149 35.0949 7.56973 35.3575 6.86408C35.62 6.15843 34.3729 5.75142 33.9021 5.55454Z" fill="#EEBE30"/>
<path opacity="0.5" d="M24.7059 6.47731C24.6373 6.23885 24.5107 6.02015 24.3369 5.83988C24.1631 5.65961 23.9472 5.52312 23.7078 5.44206C23.3637 5.35358 22.8205 5.577 22.8635 5.98402C22.8641 5.99216 22.8665 6.00009 22.8704 6.00732C22.8743 6.01455 22.8796 6.02092 22.8861 6.02605C22.6598 6.49721 23.3162 7.30904 23.5425 7.65412C23.7083 7.87506 23.8128 8.13415 23.8458 8.40622C23.8843 8.75794 23.7689 9.10524 23.8028 9.45253C23.8164 9.60737 23.9364 10.2688 24.2555 10.0033C24.6199 9.70249 24.6584 9.02118 24.7331 8.59204C24.8836 7.89379 24.8744 7.17164 24.7059 6.47731Z" fill="white"/>
<path opacity="0.5" d="M31.2879 4.18742C30.9178 3.5874 30.3278 3.14763 29.6379 2.95751C28.9407 2.76064 27.2681 2.54828 27.0916 3.54592C27.0901 3.56606 27.0952 3.58614 27.1062 3.60324C27.1172 3.62034 27.1335 3.63358 27.1527 3.64104C27.1973 3.67285 27.2369 3.71086 27.2704 3.75386C27.2799 3.77191 27.2949 3.7866 27.3134 3.79589C27.3317 3.8023 27.3517 3.8023 27.37 3.79589C27.4992 3.91162 27.6541 3.99643 27.8226 4.04364C28.2376 4.13345 28.6607 4.18236 29.0856 4.18963C29.6741 4.24494 30.0023 4.49269 30.4119 4.87759C30.6383 5.09879 31.2584 5.56333 31.5776 5.21161C31.822 4.96386 31.4214 4.39093 31.2879 4.18742Z" fill="white"/>
<path opacity="0.5" d="M11.1732 6.9659C11.074 6.95378 10.9736 6.95378 10.8744 6.9659C10.8748 6.96154 10.8742 6.95715 10.8726 6.95306C10.871 6.94897 10.8685 6.94529 10.8652 6.9423C10.8619 6.93932 10.858 6.9371 10.8537 6.93582C10.8494 6.93454 10.8449 6.93424 10.8405 6.93493C10.6751 6.9607 10.518 7.02367 10.3817 7.11887C10.2454 7.21407 10.1336 7.3389 10.0551 7.48352C10.0008 7.59412 9.8944 7.98123 10.1275 8.00114C10.3607 8.02105 10.544 7.77994 10.6753 7.65385C10.8655 7.46192 11.0453 7.26034 11.214 7.04996C11.219 7.0421 11.2219 7.03314 11.2224 7.0239C11.2229 7.01466 11.2211 7.00543 11.217 6.99706C11.213 6.9887 11.2069 6.98146 11.1992 6.97602C11.1915 6.97057 11.1826 6.96709 11.1732 6.9659Z" fill="white"/>
<path opacity="0.5" d="M38.4741 19.7208C38.2735 19.6791 38.0664 19.6771 37.865 19.7151C37.6637 19.753 37.4722 19.83 37.3018 19.9416C37.1315 20.0532 36.9858 20.1971 36.8734 20.3647C36.761 20.5324 36.6842 20.7203 36.6475 20.9175C36.6462 20.9246 36.6465 20.9319 36.6483 20.9389C36.6502 20.9458 36.6537 20.9523 36.6585 20.9578C36.6632 20.9633 36.6692 20.9677 36.6759 20.9707C36.6826 20.9737 36.6899 20.9752 36.6973 20.975C36.6984 20.9898 36.6984 21.0045 36.6973 21.0193C36.6181 21.3644 36.1994 21.5236 35.9345 21.6696C35.7376 21.7758 35.5339 21.8709 35.3302 21.9683C34.6512 22.3045 33.5829 22.738 33.3724 23.6295C33.369 23.6392 33.3687 23.6497 33.3716 23.6596C33.3744 23.6694 33.3802 23.6782 33.3882 23.6848C33.7956 23.9591 34.2642 23.5499 34.5833 23.2933C35.2273 22.7945 35.9826 22.4512 36.7878 22.2912C37.6796 22.101 39.3432 22.1585 39.6646 20.964C39.8593 20.2229 38.9969 19.8115 38.4741 19.7208Z" fill="white"/>
<path d="M23.8864 2.56382C23.8071 2.45543 23.6057 2.22316 23.4699 2.20768C23.3929 2.20768 23.3635 2.05726 23.2911 2.07938C23.2187 2.1015 23.1077 2.1568 23.0082 2.07938C22.9747 2.04897 22.9392 2.02089 22.9018 1.99532C22.881 1.98106 22.8572 1.97148 22.8321 1.96727C22.8071 1.96307 22.7814 1.96433 22.7569 1.97099C22.6935 1.99532 22.6686 2.08823 22.5917 2.0285C22.5147 1.96878 22.3314 2.05947 22.2861 2.14795C22.2709 2.17222 22.2587 2.19822 22.2499 2.22538C21.9806 2.26298 21.709 2.66779 21.6071 2.85581C21.5119 3.03676 21.4674 3.23912 21.4781 3.44232C21.4889 3.64552 21.5545 3.84232 21.6682 4.01272C21.9149 4.42417 22.4174 4.47947 22.861 4.49274C23.0358 4.51254 23.2129 4.49749 23.3816 4.4485C23.5376 4.38162 23.6728 4.27553 23.7732 4.14102C24.2213 3.60128 24.3073 3.13232 23.8864 2.56382Z" fill="#48264C"/>
<path d="M23.8864 2.56416C23.8092 2.45774 23.7179 2.36179 23.6148 2.27881C23.6243 2.64434 23.5035 3.00172 23.2731 3.28982C23.0427 3.57793 22.7171 3.77885 22.3518 3.85822C22.0943 3.91357 21.8267 3.9052 21.5732 3.83389C21.6004 3.89796 21.6321 3.96006 21.6683 4.0197C21.915 4.43115 22.4175 4.48645 22.8611 4.49972C23.0359 4.51952 23.213 4.50447 23.3817 4.45548C23.5377 4.3886 23.6728 4.2825 23.7733 4.148C24.2214 3.60162 24.3074 3.13266 23.8864 2.56416Z" fill="#300D33"/>
<path d="M24.2848 24.5826C24.212 24.4 24.0947 24.2375 23.943 24.1092C23.9181 23.9721 23.8865 23.8371 23.857 23.7C23.8547 23.6866 23.8493 23.6739 23.8412 23.6628C23.8332 23.6517 23.8227 23.6425 23.8105 23.6359C23.7983 23.6294 23.7848 23.6255 23.7709 23.6248C23.757 23.624 23.7432 23.6262 23.7303 23.6314C23.5266 23.7243 23.4813 23.6049 23.341 23.4965C23.3185 23.483 23.2927 23.4758 23.2663 23.4758C23.2399 23.4758 23.2141 23.483 23.1916 23.4965C22.9653 23.6469 22.7253 23.2908 22.5488 23.4965C22.4455 23.6515 22.3313 23.7994 22.207 23.9389C22.0601 24.0297 21.9248 24.1374 21.8042 24.2596C21.7174 24.335 21.6413 24.4213 21.5778 24.5162C21.5522 24.5563 21.5288 24.5977 21.5077 24.6401C21.4895 24.6799 21.4737 24.722 21.4601 24.7618C21.4591 24.7662 21.4591 24.7707 21.4601 24.7751C21.3685 25.0641 21.3741 25.3742 21.476 25.6599C21.648 26.1709 22.1912 26.3523 22.6778 26.4695C22.8661 26.5328 23.0654 26.5584 23.264 26.5447C23.454 26.5066 23.6304 26.4204 23.7756 26.2947C24.4002 25.8081 24.6085 25.3104 24.2848 24.5826Z" fill="#48264C"/>
<path d="M24.2848 24.5829C24.227 24.4475 24.1508 24.3203 24.0585 24.2046C23.9786 24.6111 23.7565 24.9778 23.4303 25.2417C23.104 25.5057 22.6939 25.6505 22.2704 25.6513C21.9708 25.6519 21.6758 25.5788 21.4126 25.4389C21.4269 25.5139 21.4466 25.5878 21.4714 25.6601C21.6435 26.1711 22.1867 26.3525 22.6733 26.4697C22.8616 26.533 23.0609 26.5586 23.2595 26.545C23.4495 26.5069 23.6259 26.4207 23.771 26.295C24.4002 25.8083 24.6085 25.3106 24.2848 24.5829Z" fill="#300D33"/>
<path d="M20.1926 2.17899C20.1224 2.04406 19.9413 1.74985 19.7919 1.70782C19.715 1.68791 19.715 1.54855 19.6403 1.53528C19.6177 1.3362 19.5249 1.12826 19.2872 1.17029C19.2329 1.17029 19.088 1.3185 19.0315 1.23444C19.0037 1.18478 18.9588 1.14637 18.9047 1.12605C18.7938 1.08402 18.6965 1.17914 18.6331 1.25214C18.5267 1.3738 18.3909 1.19462 18.2528 1.25214C18.1868 1.29026 18.1329 1.34567 18.0973 1.41211C18.0617 1.47855 18.0458 1.55339 18.0514 1.62819C18.0514 1.64146 18.0514 1.65031 18.0514 1.66358C17.8806 1.7902 17.7283 1.93905 17.5987 2.10599C17.4586 2.29021 17.371 2.50743 17.3447 2.73553C17.3185 2.96363 17.3546 3.19445 17.4493 3.40448C17.6485 3.90661 18.2008 4.0681 18.6919 4.15437C18.8773 4.20536 19.0708 4.22187 19.2623 4.20303C19.449 4.15496 19.6198 4.06046 19.758 3.92874C20.3714 3.39563 20.5524 2.88906 20.1926 2.17899Z" fill="#48264C"/>
<path d="M20.1926 2.17873C20.1246 2.04669 20.0403 1.92336 19.9414 1.81152C19.8848 2.22339 19.6833 2.60317 19.3715 2.88571C19.0597 3.16825 18.657 3.33592 18.2325 3.35997C17.9345 3.37505 17.6373 3.31726 17.3679 3.19185C17.3859 3.26712 17.4093 3.34105 17.4381 3.41306C17.6373 3.91519 18.1895 4.07667 18.6807 4.16294C18.8702 4.21237 19.0676 4.22589 19.2624 4.20276C19.4491 4.15469 19.6198 4.06019 19.758 3.92847C20.3714 3.39536 20.5525 2.8888 20.1926 2.17873Z" fill="#300D33"/>
<path d="M28.9948 3.96597C28.9247 3.79564 28.7323 3.4218 28.5603 3.35987C28.4629 3.32668 28.4675 3.12539 28.3679 3.13866C28.2321 3.15193 28.1031 3.18732 27.9967 3.06124C27.963 3.01096 27.926 2.96293 27.8858 2.91745C27.8638 2.8916 27.836 2.87099 27.8046 2.85719C27.7733 2.84339 27.7391 2.83677 27.7047 2.83782C27.6142 2.8533 27.5531 2.97275 27.4784 2.86657C27.372 2.725 27.1298 2.83118 27.0438 2.93736C27.0172 2.96588 26.9937 2.99702 26.9736 3.03027C26.6115 3.00151 26.1339 3.47268 25.9461 3.69389C25.7669 3.9132 25.648 4.17353 25.6004 4.45028C25.5529 4.72704 25.5784 5.01106 25.6744 5.27551C25.8691 5.90595 26.5096 6.13379 27.08 6.28643C27.2975 6.36248 27.5284 6.39483 27.759 6.38154C27.9847 6.33688 28.1937 6.23286 28.3633 6.0807C29.1238 5.47017 29.3773 4.86628 28.9948 3.96597Z" fill="#48264C"/>
<path d="M28.9949 3.96626C28.9264 3.80026 28.8367 3.64342 28.7278 3.49951C28.6395 3.98852 28.3789 4.4319 27.9911 4.75272C27.6033 5.07354 27.1128 5.25156 26.6047 5.25589C26.2526 5.25358 25.9072 5.16213 25.6021 4.99044C25.6172 5.08401 25.6391 5.17641 25.6677 5.26695C25.8623 5.89739 26.5029 6.12523 27.0732 6.27786C27.2907 6.35392 27.5217 6.38627 27.7523 6.37298C27.978 6.32832 28.1869 6.2243 28.3566 6.07214C29.1239 5.47046 29.3774 4.86657 28.9949 3.96626Z" fill="#300D33"/>
<path d="M28.6623 22.6914C28.574 22.4945 28.3409 22.0654 28.1349 21.9968C28.0173 21.9592 28.0173 21.7247 27.9086 21.738C27.7479 21.7557 27.594 21.7977 27.4559 21.654C27.4152 21.5953 27.3697 21.5398 27.3201 21.4881C27.2916 21.4576 27.2565 21.4339 27.2173 21.4185C27.1781 21.4032 27.1359 21.3967 27.0938 21.3996C26.9852 21.4173 26.9127 21.5544 26.8154 21.435C26.6841 21.2713 26.3967 21.3974 26.2926 21.519C26.2614 21.5535 26.2334 21.5905 26.2088 21.6296C25.7742 21.5987 25.2061 22.1517 24.9821 22.3994C24.7705 22.6505 24.6306 22.9517 24.5766 23.2725C24.5225 23.5934 24.5562 23.9225 24.6742 24.2266C24.9164 24.9522 25.6882 25.2065 26.374 25.3747C26.6416 25.4639 26.925 25.4993 27.207 25.4786C27.4752 25.4259 27.7244 25.3045 27.929 25.1269C28.8253 24.4235 29.1195 23.72 28.6623 22.6914Z" fill="#48264C"/>
<path d="M28.6625 22.6913C28.5786 22.4989 28.469 22.3181 28.3365 22.1538C28.2228 22.7291 27.9084 23.2479 27.4469 23.6219C26.9855 23.9958 26.4055 24.2017 25.8061 24.2044C25.384 24.205 24.9685 24.1023 24.5974 23.9058C24.6154 24.0147 24.6427 24.122 24.6789 24.2265C24.9211 24.9521 25.6929 25.2065 26.3787 25.3746C26.6463 25.4639 26.9296 25.4992 27.2116 25.4785C27.4799 25.4258 27.7291 25.3045 27.9336 25.1268C28.8254 24.4234 29.1197 23.72 28.6625 22.6913Z" fill="#300D33"/>
<path d="M18.4274 21.0986C18.4274 21.0986 19.0317 20.8774 19.3826 21.6583C19.7334 22.4392 19.8601 23.2067 20.211 23.5717C20.3074 23.6537 20.3834 23.7561 20.4332 23.8711C20.483 23.9861 20.5053 24.1106 20.4984 24.2353C20.4984 24.2353 19.5093 23.7067 19.2558 23.4257C18.8797 23.0441 18.5576 22.6148 18.2984 22.1494C18.0132 21.5875 17.8118 21.061 17.8118 21.061L18.4274 21.0986Z" fill="#5F825C"/>
<path d="M18.1896 20.9616C18.1896 20.9616 18.3412 20.3489 17.5106 20.0989C16.6799 19.8489 15.8809 19.8113 15.4735 19.5127C15.3782 19.4277 15.264 19.3653 15.14 19.3304C15.0159 19.2955 14.8853 19.289 14.7583 19.3114C14.7583 19.3114 15.4079 20.2117 15.7225 20.4174C16.1543 20.7376 16.6277 21.0002 17.1303 21.1983C17.7324 21.4195 18.2914 21.5478 18.2914 21.5478L18.1896 20.9616Z" fill="#5F825C"/>
<path d="M18.0721 21.2605C18.0721 21.2605 19.188 22.0391 19.1563 23.0987C19.1246 24.1583 19.1246 24.687 18.4773 25.2776C17.8299 25.8682 16.5987 25.9014 15.9604 26.1801C15.3221 26.4588 14.5593 26.711 14.376 26.8658C14.1927 27.0207 13.8034 27.1777 13.2307 26.8658C12.6581 26.5539 12.3254 26.5871 12.434 25.7134C12.5964 24.5889 12.874 23.4832 13.2624 22.413C13.5793 21.6034 13.86 20.9796 14.7563 20.7318C15.6155 20.516 16.5234 20.5812 17.3411 20.9176C17.9046 21.1985 18.0721 21.2605 18.0721 21.2605Z" fill="#ED6366"/>
<path d="M12.5673 24.8707C13.0739 25.0566 13.6106 25.1518 14.1517 25.1516C16.3698 25.1516 18.1669 23.6275 18.1669 21.7494C18.1675 21.5946 18.1554 21.44 18.1307 21.2871C18.3707 21.4751 19.1742 22.1719 19.147 23.0745C19.1153 24.1318 19.1153 24.6627 18.468 25.2533C17.8206 25.844 16.5894 25.8771 15.9511 26.1559C15.3128 26.4346 14.5501 26.6868 14.3667 26.8416C14.1834 26.9965 13.7941 27.1535 13.2215 26.8416C12.6488 26.5297 12.3161 26.5607 12.4247 25.6891C12.4587 25.4591 12.5062 25.1781 12.5673 24.8707Z" fill="#C73A54"/>
<path d="M18.5676 23.5826C18.7192 23.6025 18.7554 23.3481 18.7667 23.1623C18.7783 23.1158 18.7783 23.0672 18.7667 23.0207V23.0052C18.7667 22.9875 18.7418 22.9831 18.7396 23.0052C18.7344 23.0056 18.7295 23.0073 18.7252 23.0099C18.7208 23.0126 18.7172 23.0163 18.7147 23.0207C18.6875 23.0804 18.3571 23.556 18.5676 23.5826Z" fill="#E7D8C8"/>
<path d="M18.2505 22.6227C18.2526 22.6254 18.2553 22.6277 18.2584 22.6292C18.2616 22.6307 18.2651 22.6315 18.2686 22.6315C18.2721 22.6315 18.2755 22.6307 18.2787 22.6292C18.2818 22.6277 18.2846 22.6254 18.2867 22.6227C18.3311 22.5873 18.3671 22.5428 18.3921 22.4923C18.4172 22.4419 18.4306 22.3867 18.4315 22.3307C18.4437 22.3003 18.4506 22.2682 18.4519 22.2356C18.4524 22.2309 18.4515 22.2262 18.4495 22.222C18.4475 22.2177 18.4444 22.2141 18.4405 22.2114C18.4366 22.2087 18.4321 22.2071 18.4273 22.2067C18.4225 22.2062 18.4178 22.207 18.4134 22.209C18.4134 22.209 18.3863 22.209 18.3885 22.209C18.3237 22.2548 18.2754 22.3195 18.2506 22.3939C18.2258 22.4682 18.2257 22.5483 18.2505 22.6227Z" fill="#E7D8C8"/>
<path d="M17.5966 22.1205C17.7279 22.2222 17.789 21.99 17.8229 21.8374C17.8423 21.7912 17.856 21.7429 17.8637 21.6936C17.8642 21.688 17.8629 21.6824 17.86 21.6775C17.857 21.6727 17.8526 21.6689 17.8473 21.6667C17.842 21.6645 17.8362 21.664 17.8306 21.6652C17.825 21.6665 17.8199 21.6694 17.8161 21.6737C17.7528 21.7467 17.4676 22.0276 17.5966 22.1205Z" fill="#E7D8C8"/>
<path d="M17.513 23.1072C17.5149 23.1096 17.5173 23.1114 17.52 23.1127C17.5228 23.114 17.5258 23.1146 17.5288 23.1146C17.5318 23.1146 17.5348 23.114 17.5376 23.1127C17.5403 23.1114 17.5427 23.1096 17.5447 23.1072C17.5879 23.0662 17.6259 23.0201 17.6578 22.9701C17.7366 22.8838 17.7857 22.7755 17.7981 22.6604C17.7981 22.6427 17.78 22.6206 17.7597 22.6295L17.7189 22.656C17.5741 22.76 17.4021 22.9613 17.513 23.1072Z" fill="#E7D8C8"/>
<path d="M17.7391 24.0963C17.8228 24.1472 17.8726 24.03 17.8998 23.9083C17.9368 23.8462 17.9585 23.7765 17.9632 23.7048C17.9636 23.7001 17.9628 23.6955 17.9608 23.6912C17.9588 23.687 17.9557 23.6833 17.9518 23.6806C17.9479 23.6779 17.9433 23.6763 17.9386 23.6759C17.9338 23.6755 17.929 23.6763 17.9247 23.6782H17.8975C17.8975 23.6782 17.8975 23.6782 17.8975 23.6937C17.838 23.7535 17.7911 23.8242 17.7595 23.9017C17.7368 23.9525 17.678 24.0631 17.7391 24.0963Z" fill="#E7D8C8"/>
<path d="M18.167 24.6445C18.2575 24.702 18.3525 24.6202 18.3933 24.5405C18.4157 24.4863 18.4324 24.43 18.4431 24.3724C18.4701 24.3279 18.4863 24.278 18.4906 24.2264C18.496 24.2207 18.499 24.2132 18.499 24.2054C18.499 24.1976 18.496 24.1901 18.4906 24.1844V24.1689C18.4906 24.1512 18.4612 24.1335 18.4431 24.149C18.3684 24.2021 18.0289 24.5538 18.167 24.6445Z" fill="#E7D8C8"/>
<path d="M17.289 24.9498C17.3659 25.0538 17.4406 24.9498 17.4927 24.848C17.5246 24.8203 17.55 24.7862 17.5672 24.7481C17.5844 24.7099 17.5929 24.6685 17.5923 24.6268C17.5922 24.6229 17.5911 24.6191 17.5892 24.6156C17.5873 24.6122 17.5845 24.6093 17.5812 24.6071C17.5778 24.6049 17.574 24.6036 17.57 24.6032C17.5661 24.6027 17.562 24.6033 17.5583 24.6047C17.4519 24.6445 17.1939 24.8215 17.289 24.9498Z" fill="#E7D8C8"/>
<path d="M16.863 23.6688C16.9287 23.5912 17.0048 23.5228 17.0894 23.4653C17.094 23.4617 17.0996 23.4595 17.1055 23.4591C17.1114 23.4586 17.1173 23.4599 17.1224 23.4628C17.1275 23.4656 17.1316 23.4699 17.1342 23.4751C17.1368 23.4803 17.1378 23.4861 17.1369 23.4919C17.1345 23.5248 17.1261 23.557 17.112 23.587V23.6202C17.1005 23.7126 17.0611 23.7996 16.9988 23.8701C16.9513 23.9232 16.8404 23.9498 16.7951 23.8701C16.7499 23.7905 16.8223 23.7064 16.863 23.6688Z" fill="#E7D8C8"/>
<path d="M16.7364 22.8886C16.7545 22.9572 16.845 22.9506 16.8903 22.9152C16.9206 22.8884 16.9452 22.8561 16.9627 22.8201C17.0048 22.7697 17.0301 22.7079 17.0352 22.6431C17.0354 22.6382 17.0344 22.6333 17.0323 22.6288C17.0301 22.6243 17.0269 22.6204 17.023 22.6174C17.019 22.6143 17.0143 22.6123 17.0093 22.6114C17.0044 22.6105 16.9993 22.6107 16.9944 22.6121C16.93 22.6369 16.8726 22.6763 16.8269 22.7272C16.7862 22.7648 16.7183 22.8267 16.7364 22.8886Z" fill="#E7D8C8"/>
<path d="M17.1257 21.2362C17.1333 21.234 17.1414 21.2345 17.1485 21.2378C17.1556 21.2411 17.1612 21.2468 17.1642 21.2539C17.1813 21.3199 17.1784 21.3893 17.1559 21.4537C17.1334 21.518 17.0922 21.5747 17.0375 21.6167C17.0332 21.6197 17.0283 21.6218 17.0231 21.6227C17.0179 21.6235 17.0125 21.6232 17.0075 21.6217C17.0024 21.6202 16.9978 21.6176 16.994 21.614C16.9901 21.6104 16.9872 21.6061 16.9854 21.6012C16.9785 21.5857 16.9739 21.5693 16.9718 21.5525C16.9511 21.4906 16.9556 21.4232 16.9842 21.3644C17.0128 21.3055 17.0635 21.2596 17.1257 21.2362Z" fill="#E7D8C8"/>
<path d="M16.3448 22.4526C16.4127 22.5079 16.4693 22.4526 16.51 22.3641C16.5617 22.3137 16.5998 22.2516 16.6207 22.1832C16.6417 22.1148 16.6449 22.0424 16.63 21.9726C16.6269 21.9664 16.6221 21.9612 16.616 21.9577C16.61 21.9541 16.603 21.9524 16.596 21.9527C16.4942 21.9659 16.4082 22.1053 16.3697 22.1739C16.3312 22.2424 16.2588 22.3862 16.3448 22.4526Z" fill="#E7D8C8"/>
<path d="M16.32 21.1824C16.3331 21.1666 16.3475 21.1518 16.363 21.1382C16.3681 21.1347 16.374 21.1326 16.3802 21.132C16.3863 21.1314 16.3926 21.1324 16.3983 21.1348C16.4039 21.1373 16.4089 21.1411 16.4126 21.146C16.4163 21.1508 16.4187 21.1565 16.4196 21.1625C16.4259 21.2137 16.4203 21.2656 16.403 21.3142C16.3858 21.3629 16.3574 21.4071 16.32 21.4435C16.3204 21.4494 16.3204 21.4553 16.32 21.4612C16.3131 21.4747 16.3027 21.4864 16.2899 21.4949C16.2771 21.5035 16.2623 21.5086 16.2468 21.51C16.2314 21.5113 16.2158 21.5087 16.2017 21.5025C16.1875 21.4963 16.1753 21.4866 16.1661 21.4744C16.0687 21.3771 16.2068 21.2355 16.32 21.1824Z" fill="#E7D8C8"/>
<path d="M15.5504 21.9928C15.5956 21.9011 15.6671 21.8242 15.7563 21.7716C15.7615 21.7679 15.7676 21.7658 15.774 21.7656C15.7804 21.7654 15.7867 21.7671 15.792 21.7705C15.7974 21.7738 15.8016 21.7787 15.8041 21.7844C15.8067 21.7901 15.8073 21.7964 15.8061 21.8026C15.8033 21.8437 15.7934 21.8841 15.7767 21.922C15.7767 21.9353 15.7767 21.9486 15.7767 21.9596C15.7718 22.0086 15.7612 22.0568 15.745 22.1034C15.7305 22.1485 15.6989 22.1865 15.6567 22.2096C15.6536 22.2151 15.649 22.2197 15.6434 22.2229C15.6379 22.2261 15.6315 22.2278 15.625 22.2278C15.6186 22.2278 15.6122 22.2261 15.6067 22.2229C15.6011 22.2197 15.5965 22.2151 15.5934 22.2096C15.5051 22.1631 15.5322 22.0481 15.5504 21.9928Z" fill="#E7D8C8"/>
<path d="M15.3896 21.4572C15.3933 21.4595 15.3976 21.4608 15.402 21.4608C15.4064 21.4608 15.4108 21.4595 15.4145 21.4572C15.4447 21.429 15.4726 21.3987 15.4982 21.3665C15.5553 21.3198 15.6036 21.2636 15.6408 21.2006C15.6563 21.1729 15.6626 21.1412 15.6589 21.1099V21.0944C15.6589 21.0789 15.6589 21.0678 15.6363 21.0745C15.6279 21.0645 15.6171 21.0566 15.6048 21.0516C15.5926 21.0466 15.5793 21.0446 15.5661 21.0457C15.4145 21.0479 15.256 21.3488 15.3896 21.4572Z" fill="#E7D8C8"/>
<path d="M14.4755 21.7339C14.5207 21.8179 14.6271 21.7339 14.6656 21.6874C14.7272 21.6178 14.77 21.5341 14.7901 21.4441C14.8059 21.414 14.8144 21.3807 14.815 21.3468C14.8157 21.3419 14.8152 21.3369 14.8137 21.3322C14.8121 21.3274 14.8095 21.3231 14.8061 21.3195C14.8026 21.3159 14.7983 21.3131 14.7936 21.3113C14.7889 21.3095 14.7838 21.3088 14.7788 21.3092C14.7259 21.3165 14.6757 21.3365 14.6326 21.3674C14.5896 21.3982 14.555 21.439 14.532 21.4861C14.4936 21.5503 14.4347 21.6587 14.4755 21.7339Z" fill="#E7D8C8"/>
<path d="M14.6994 22.6229C14.7266 22.6915 14.799 22.6583 14.8262 22.6229C14.8533 22.5875 14.8511 22.5765 14.8624 22.5544C14.9072 22.5065 14.9389 22.4484 14.9548 22.3854C14.9706 22.3224 14.9699 22.2565 14.9529 22.1938C14.9513 22.1896 14.9488 22.1858 14.9455 22.1827C14.9421 22.1796 14.9381 22.1773 14.9337 22.176C14.9293 22.1747 14.9246 22.1745 14.9201 22.1752C14.9156 22.176 14.9113 22.1778 14.9076 22.1805C14.8442 22.2368 14.7947 22.3064 14.7628 22.384C14.7356 22.4415 14.6677 22.5433 14.6994 22.6229Z" fill="#E7D8C8"/>
<path d="M15.6206 23.0056C15.6448 22.8944 15.708 22.795 15.7994 22.7247C15.8034 22.7205 15.8085 22.7175 15.8141 22.7159C15.8198 22.7144 15.8258 22.7145 15.8314 22.7161C15.837 22.7177 15.8421 22.7208 15.846 22.725C15.85 22.7293 15.8526 22.7345 15.8537 22.7402C15.8575 22.7814 15.8521 22.8229 15.8378 22.8618C15.8322 22.9107 15.813 22.9572 15.7822 22.9962C15.7515 23.0352 15.7105 23.0652 15.6636 23.0831H15.6409C15.6354 23.0838 15.6298 23.0833 15.6245 23.0815C15.6192 23.0798 15.6144 23.0769 15.6105 23.073C15.6065 23.0692 15.6035 23.0645 15.6018 23.0593C15.6 23.0541 15.5994 23.0486 15.6002 23.0432L15.6206 23.0056Z" fill="#E7D8C8"/>
<path d="M16.2817 23.2667C16.2864 23.2636 16.2918 23.2618 16.2974 23.2613C16.303 23.2609 16.3086 23.2618 16.3138 23.264C16.319 23.2662 16.3235 23.2696 16.327 23.2739C16.3304 23.2782 16.3328 23.2834 16.3337 23.2888C16.3337 23.2888 16.3337 23.2888 16.3337 23.3043C16.3337 23.4281 16.2454 23.6272 16.1074 23.6383C16.1036 23.6389 16.0998 23.6388 16.0961 23.6378C16.0924 23.6369 16.089 23.6353 16.086 23.633C16.083 23.6307 16.0806 23.6278 16.0788 23.6245C16.077 23.6213 16.0759 23.6176 16.0757 23.6139C16.0796 23.5443 16.1003 23.4765 16.136 23.4162C16.1718 23.3558 16.2217 23.3046 16.2817 23.2667Z" fill="#E7D8C8"/>
<path d="M15.5053 23.6689C15.5336 23.6413 15.5656 23.6175 15.6004 23.5981C15.6185 23.5981 15.6502 23.5981 15.6502 23.6181C15.6456 23.7066 15.6087 23.7906 15.546 23.8547C15.5201 23.8956 15.4823 23.9279 15.4374 23.9476C15.4314 23.9498 15.4247 23.9497 15.4188 23.9472C15.4129 23.9447 15.4082 23.9401 15.4057 23.9344C15.4057 23.9344 15.4057 23.9189 15.4057 23.91C15.4044 23.9042 15.4044 23.8982 15.4057 23.8923C15.3981 23.8497 15.4035 23.8057 15.4212 23.766C15.4389 23.7263 15.4681 23.6925 15.5053 23.6689Z" fill="#E7D8C8"/>
<path d="M14.91 23.0475C14.9192 23.0468 14.9284 23.0497 14.9355 23.0554C14.9427 23.0612 14.9473 23.0694 14.9484 23.0784C14.9518 23.0974 14.9518 23.1169 14.9484 23.1359C14.9527 23.1682 14.9497 23.201 14.9395 23.2319C14.9293 23.2629 14.9123 23.2913 14.8896 23.3151C14.8594 23.369 14.8127 23.4123 14.756 23.439C14.7425 23.439 14.7266 23.439 14.7198 23.4235C14.67 23.3085 14.747 23.0452 14.91 23.0475Z" fill="#E7D8C8"/>
<path d="M13.8892 22.9086C13.8907 22.9132 13.8931 22.9175 13.8964 22.9211C13.8996 22.9247 13.9036 22.9276 13.908 22.9297C13.9125 22.9318 13.9173 22.933 13.9223 22.9331C13.9272 22.9333 13.9321 22.9325 13.9367 22.9308C14.0068 22.8987 14.0636 22.8441 14.0973 22.776C14.1311 22.708 14.1399 22.6306 14.1223 22.5569C14.1201 22.5523 14.117 22.5482 14.1132 22.5449C14.1093 22.5416 14.1048 22.5391 14.0998 22.5377C14.0949 22.5362 14.0897 22.5358 14.0846 22.5364C14.0795 22.5371 14.0746 22.5388 14.0702 22.5414C14.019 22.5766 13.9759 22.6218 13.9435 22.6742C13.9163 22.7064 13.8973 22.7444 13.8879 22.7851C13.8784 22.8258 13.8789 22.8681 13.8892 22.9086Z" fill="#E7D8C8"/>
<path d="M13.9888 23.7621C13.9884 23.7166 14.0009 23.6719 14.0249 23.6328C14.0488 23.5938 14.0833 23.562 14.1246 23.5409C14.1296 23.5387 14.1351 23.5378 14.1406 23.5382C14.1461 23.5385 14.1514 23.5402 14.1561 23.5431C14.1607 23.5459 14.1646 23.5498 14.1674 23.5544C14.1702 23.559 14.1718 23.5643 14.1721 23.5696C14.1783 23.6136 14.1737 23.6584 14.1588 23.7003C14.1438 23.7422 14.1189 23.7801 14.0861 23.8107C14.0763 23.824 14.064 23.8353 14.0499 23.8439C14.0456 23.8462 14.0409 23.8476 14.036 23.8481C14.0312 23.8485 14.0263 23.848 14.0216 23.8466C14.017 23.8451 14.0127 23.8428 14.009 23.8396C14.0053 23.8365 14.0022 23.8327 14.0001 23.8284C13.999 23.826 13.9985 23.8234 13.9985 23.8207C13.9985 23.818 13.999 23.8154 14.0001 23.813C13.994 23.7966 13.9901 23.7795 13.9888 23.7621Z" fill="#E7D8C8"/>
<path d="M16.0621 24.0831C16.0661 24.0828 16.0702 24.0833 16.074 24.0846C16.0778 24.0859 16.0814 24.088 16.0843 24.0907C16.0873 24.0934 16.0897 24.0967 16.0913 24.1003C16.0929 24.104 16.0938 24.1079 16.0937 24.1118C16.0935 24.1708 16.0761 24.2285 16.0437 24.2782C16.0112 24.328 15.965 24.3677 15.9104 24.3928C15.903 24.395 15.8951 24.395 15.8878 24.3928H15.8561C15.8525 24.3934 15.8487 24.3933 15.8452 24.3924C15.8416 24.3914 15.8383 24.3898 15.8355 24.3874C15.8327 24.3851 15.8304 24.3822 15.8289 24.3789C15.8274 24.3756 15.8266 24.3721 15.8267 24.3684C15.8391 24.3057 15.8671 24.2469 15.9081 24.1972C15.9491 24.1474 16.002 24.1083 16.0621 24.0831Z" fill="#E7D8C8"/>
<path d="M16.302 24.6997C16.3013 24.7056 16.3021 24.7116 16.3044 24.7172C16.3067 24.7227 16.3104 24.7275 16.3152 24.7313C16.3199 24.7351 16.3256 24.7376 16.3316 24.7386C16.3376 24.7397 16.3437 24.7392 16.3495 24.7373H16.3654C16.3687 24.7395 16.3727 24.7407 16.3767 24.7407C16.3807 24.7407 16.3847 24.7395 16.388 24.7373L16.4039 24.7218C16.4478 24.6918 16.4851 24.6534 16.5135 24.6089C16.5419 24.5644 16.5608 24.5148 16.5691 24.463C16.5699 24.4579 16.5693 24.4527 16.5674 24.4479C16.5655 24.4431 16.5623 24.4389 16.5581 24.4357C16.5539 24.4326 16.549 24.4306 16.5437 24.4299C16.5385 24.4293 16.5332 24.43 16.5283 24.4321C16.4559 24.465 16.3958 24.5191 16.3563 24.5869C16.3306 24.6205 16.3121 24.6589 16.302 24.6997Z" fill="#E7D8C8"/>
<path d="M16.1683 25.479C16.197 25.4199 16.2388 25.3678 16.2906 25.3263C16.3126 25.3027 16.3368 25.2813 16.363 25.2622C16.3703 25.2598 16.3783 25.2598 16.3856 25.2622C16.3902 25.2586 16.3958 25.2564 16.4017 25.2559C16.4076 25.2555 16.4135 25.2568 16.4186 25.2596C16.4238 25.2625 16.4279 25.2668 16.4305 25.272C16.4331 25.2772 16.434 25.283 16.4332 25.2887C16.4244 25.3411 16.4003 25.3899 16.3637 25.4292C16.3272 25.4684 16.2797 25.4965 16.2272 25.5099H16.2091C16.2043 25.5131 16.1987 25.5146 16.193 25.5144C16.1873 25.5142 16.1818 25.5123 16.1772 25.5089C16.1727 25.5054 16.1694 25.5007 16.1678 25.4953C16.1662 25.49 16.1664 25.4842 16.1683 25.479Z" fill="#E7D8C8"/>
<path d="M15.435 25.0983C15.4371 25.0662 15.4462 25.035 15.4618 25.0067C15.4775 24.9784 15.4992 24.9538 15.5256 24.9346C15.5606 24.8994 15.6042 24.8735 15.6523 24.8594C15.6727 24.8594 15.6999 24.8594 15.6999 24.8859C15.6963 24.9488 15.6725 25.009 15.6319 25.0579C15.5912 25.1067 15.5358 25.1418 15.4735 25.158C15.4688 25.1586 15.4639 25.1583 15.4593 25.1571C15.4546 25.1559 15.4503 25.1537 15.4465 25.1509C15.4427 25.148 15.4396 25.1444 15.4372 25.1403C15.4348 25.1362 15.4333 25.1317 15.4328 25.127C15.4306 25.1252 15.4288 25.1229 15.4277 25.1203C15.4266 25.1177 15.4261 25.1149 15.4263 25.1121C15.4265 25.1093 15.4275 25.1066 15.429 25.1042C15.4305 25.1018 15.4326 25.0997 15.435 25.0983Z" fill="#E7D8C8"/>
<path d="M14.9122 24.1914H14.9303C14.9376 24.1886 14.9454 24.1875 14.9532 24.1882C14.961 24.1889 14.9685 24.1914 14.9751 24.1955C14.9817 24.1996 14.9873 24.2052 14.9913 24.2118C14.9953 24.2184 14.9976 24.2258 14.9982 24.2334C14.9846 24.3462 14.8873 24.4922 14.7718 24.4988C14.7537 24.4988 14.7288 24.4856 14.7311 24.4657C14.7302 24.4076 14.7469 24.3505 14.7791 24.3017C14.8114 24.2529 14.8576 24.2145 14.9122 24.1914Z" fill="#E7D8C8"/>
<path d="M14.5456 25.2178C14.5915 25.152 14.6572 25.1018 14.7335 25.074C14.7394 25.0716 14.7458 25.0708 14.7522 25.0716C14.7585 25.0724 14.7645 25.0749 14.7696 25.0787C14.7746 25.0825 14.7786 25.0876 14.781 25.0933C14.7834 25.0991 14.7842 25.1054 14.7833 25.1116C14.7414 25.2405 14.6507 25.3489 14.5298 25.4147C14.5247 25.4187 14.5186 25.4213 14.5121 25.4222C14.5056 25.4231 14.4989 25.4222 14.4929 25.4197C14.4869 25.4173 14.4816 25.4132 14.4777 25.408C14.4739 25.4028 14.4715 25.3967 14.4709 25.3903C14.4687 25.3579 14.4743 25.3253 14.4873 25.2954C14.5002 25.2654 14.5202 25.2388 14.5456 25.2178Z" fill="#E7D8C8"/>
<path d="M13.9481 24.5098C13.9498 24.4652 13.9626 24.4217 13.9855 24.3832C14.0084 24.3446 14.0406 24.3121 14.0794 24.2886C14.0975 24.2886 14.1314 24.2886 14.1382 24.3041C14.1465 24.3626 14.1375 24.4223 14.1122 24.476C14.087 24.5297 14.0465 24.5752 13.9956 24.6071C13.9892 24.6122 13.9813 24.6152 13.9731 24.6157C13.9649 24.6163 13.9567 24.6145 13.9496 24.6104C13.9425 24.6063 13.9368 24.6002 13.9333 24.5929C13.9298 24.5856 13.9286 24.5775 13.93 24.5695C13.9348 24.5493 13.9408 24.5293 13.9481 24.5098Z" fill="#E7D8C8"/>
<path d="M13.3776 23.8218C13.3849 23.7955 13.4008 23.7722 13.4228 23.7554L13.4364 23.74C13.4523 23.7201 13.4953 23.7267 13.4953 23.7554C13.4937 23.8037 13.478 23.8506 13.45 23.8904C13.4485 23.9195 13.4406 23.948 13.4269 23.9739C13.4133 23.9998 13.3941 24.0226 13.3708 24.0408C13.3665 24.0435 13.3616 24.045 13.3565 24.0453C13.3514 24.0456 13.3463 24.0446 13.3417 24.0423C13.3371 24.0401 13.3332 24.0367 13.3304 24.0326C13.3276 24.0284 13.3259 24.0236 13.3255 24.0187C13.3197 23.9492 13.338 23.8798 13.3776 23.8218Z" fill="#E7D8C8"/>
<path d="M13.9411 21.9107L13.9705 21.8731C13.9863 21.8576 14.0225 21.8731 14.0225 21.8886C14.0268 21.9327 14.0206 21.9772 14.0045 22.0186C13.9885 22.06 13.9629 22.0973 13.9297 22.1275V22.1408C13.9263 22.144 13.922 22.1463 13.9173 22.1474C13.9126 22.1485 13.9078 22.1484 13.9032 22.147C13.8986 22.1457 13.8944 22.1432 13.8911 22.1397C13.8878 22.1363 13.8856 22.1321 13.8845 22.1275C13.8822 22.1136 13.8822 22.0994 13.8845 22.0855C13.8753 22.0541 13.8758 22.0208 13.8858 21.9898C13.8959 21.9587 13.9151 21.9312 13.9411 21.9107Z" fill="#E7D8C8"/>
<path d="M13.6694 25.5561C13.6718 25.5602 13.6752 25.5637 13.6794 25.5661C13.6836 25.5685 13.6883 25.5698 13.6932 25.5698C13.698 25.5698 13.7028 25.5685 13.707 25.5661C13.7112 25.5637 13.7146 25.5602 13.7169 25.5561L13.7351 25.5362C13.7809 25.5012 13.8186 25.4571 13.8455 25.4067C13.8724 25.3563 13.888 25.3009 13.8912 25.2442C13.8918 25.238 13.8906 25.2318 13.8877 25.2263C13.8849 25.2207 13.8805 25.2161 13.8751 25.2128C13.8696 25.2096 13.8634 25.2079 13.8571 25.208C13.8507 25.2081 13.8445 25.2099 13.8392 25.2132C13.7418 25.2818 13.6264 25.4388 13.6694 25.5561Z" fill="#E7D8C8"/>
<path d="M13.1286 25.0917C13.1341 25.0627 13.1492 25.0363 13.1716 25.0165C13.1803 25.0019 13.1909 24.9885 13.2032 24.9767C13.2066 24.9721 13.211 24.9684 13.2161 24.9658C13.2212 24.9633 13.2269 24.9619 13.2327 24.9619C13.2384 24.9619 13.2441 24.9633 13.2492 24.9658C13.2543 24.9684 13.2587 24.9721 13.2621 24.9767C13.2801 25.0253 13.2801 25.0785 13.2621 25.1271C13.2501 25.177 13.2234 25.2224 13.1851 25.2576C13.1815 25.2603 13.1772 25.2621 13.1727 25.2629C13.1681 25.2637 13.1635 25.2634 13.1591 25.2621C13.1547 25.2608 13.1507 25.2585 13.1473 25.2554C13.144 25.2524 13.1414 25.2486 13.1399 25.2443C13.1267 25.2212 13.1189 25.1956 13.1169 25.1692C13.115 25.1429 13.119 25.1164 13.1286 25.0917Z" fill="#E7D8C8"/>
<path d="M13.2215 25.846C13.2264 25.8424 13.2322 25.8402 13.2383 25.8395C13.2444 25.8389 13.2505 25.8399 13.2561 25.8424C13.2617 25.8449 13.2665 25.8488 13.2699 25.8537C13.2734 25.8586 13.2754 25.8644 13.2758 25.8704C13.2816 25.9237 13.2755 25.9776 13.2579 26.0284C13.2403 26.0792 13.2117 26.1256 13.174 26.1646C13.174 26.1646 13.174 26.1779 13.174 26.1823C13.1718 26.1875 13.168 26.192 13.1632 26.1951C13.1583 26.1983 13.1526 26.2 13.1468 26.2C13.141 26.2 13.1353 26.1983 13.1305 26.1951C13.1257 26.192 13.1219 26.1875 13.1197 26.1823C13.1046 26.1224 13.1061 26.0598 13.124 26.0007C13.1419 25.9416 13.1756 25.8882 13.2215 25.846Z" fill="#E7D8C8"/>
<path d="M14.0567 26.1708C14.0643 26.1687 14.0724 26.169 14.0798 26.1718C14.0871 26.1746 14.0933 26.1797 14.0975 26.1863C14.0999 26.1899 14.1012 26.1941 14.1012 26.1984C14.1012 26.2028 14.0999 26.207 14.0975 26.2106C14.0982 26.2157 14.0982 26.2209 14.0975 26.2261C14.0972 26.2692 14.0866 26.3117 14.0666 26.3501C14.0465 26.3885 14.0176 26.4218 13.982 26.4473C13.9779 26.4504 13.9731 26.4525 13.968 26.4536C13.963 26.4546 13.9577 26.4545 13.9527 26.4532C13.9476 26.4519 13.943 26.4495 13.939 26.4462C13.9351 26.4429 13.932 26.4387 13.93 26.434C13.9289 26.4297 13.9289 26.4251 13.93 26.4207C13.9258 26.4211 13.9216 26.4206 13.9177 26.4192C13.9138 26.4177 13.9103 26.4154 13.9074 26.4124C13.9046 26.4094 13.9025 26.4058 13.9013 26.4019C13.9001 26.3979 13.8998 26.3938 13.9005 26.3898C13.9063 26.3436 13.9236 26.2995 13.9508 26.2613C13.978 26.2232 14.0144 26.1921 14.0567 26.1708Z" fill="#E7D8C8"/>
<path d="M15.1339 25.6377C15.1386 25.6347 15.144 25.6329 15.1496 25.6324C15.1553 25.632 15.1609 25.6329 15.1661 25.6351C15.1712 25.6373 15.1757 25.6407 15.1792 25.645C15.1827 25.6493 15.185 25.6544 15.186 25.6599C15.1882 25.727 15.1704 25.7934 15.1346 25.8507C15.0988 25.9081 15.0466 25.954 14.9845 25.9828C14.9736 25.9869 14.9615 25.9869 14.9506 25.9828L14.9234 26.0005C14.9194 26.0019 14.9151 26.0024 14.9108 26.0018C14.9066 26.0013 14.9025 25.9998 14.899 25.9974C14.8954 25.995 14.8925 25.9919 14.8905 25.9882C14.8884 25.9845 14.8873 25.9804 14.8872 25.9762C14.8968 25.9044 14.9244 25.8359 14.9674 25.7769C15.0104 25.7179 15.0676 25.6701 15.1339 25.6377Z" fill="#E7D8C8"/>
<path d="M16.9719 25.4851C16.9765 25.4748 16.9826 25.4651 16.99 25.4564C16.9863 25.4403 16.9863 25.4237 16.99 25.4077C17.0155 25.3596 17.057 25.3214 17.1077 25.2993C17.1258 25.2993 17.1507 25.2993 17.1575 25.3126C17.1665 25.3437 17.1665 25.3766 17.1575 25.4077C17.1503 25.4437 17.1296 25.4757 17.0994 25.4974C17.0692 25.5191 17.0318 25.529 16.9945 25.5249C16.9865 25.522 16.9799 25.5164 16.9757 25.5091C16.9716 25.5018 16.9702 25.4933 16.9719 25.4851Z" fill="#E7D8C8"/>
</g>
<defs>
<clipPath id="clip0_677_3434">
<rect width="43.5" height="30" fill="white" transform="translate(0.25)"/>
</clipPath>
</defs>
</svg>
