<svg width="102" height="112" viewBox="0 0 102 112" fill="none" xmlns="http://www.w3.org/2000/svg">
<g filter="url(#filter0_d_308_526)">
<rect x="40" y="30" width="32" height="32" rx="8" fill="white"/>
</g>
<path fill-rule="evenodd" clip-rule="evenodd" d="M58.5664 39.6671C58.987 39.6671 59.407 39.7264 59.8064 39.8604C62.267 40.6604 63.1537 43.3604 62.413 45.7204C61.993 46.9264 61.3064 48.0271 60.407 48.9264C59.1197 50.1731 57.707 51.2798 56.1864 52.2331L56.0197 52.3338L55.8464 52.2264C54.3204 51.2798 52.8997 50.1731 51.6004 48.9198C50.707 48.0204 50.0197 46.9264 49.593 45.7204C48.8397 43.3604 49.7264 40.6604 52.2137 39.8464C52.407 39.7798 52.6064 39.7331 52.8064 39.7071H52.8864C53.0737 39.6798 53.2597 39.6671 53.4464 39.6671H53.5197C53.9397 39.6798 54.3464 39.7531 54.7404 39.8871H54.7797C54.8064 39.8998 54.8264 39.9138 54.8397 39.9264C54.987 39.9738 55.1264 40.0271 55.2597 40.1004L55.513 40.2138C55.5742 40.2464 55.6429 40.2963 55.7023 40.3394C55.74 40.3667 55.7738 40.3913 55.7997 40.4071C55.8106 40.4135 55.8216 40.42 55.8328 40.4265C55.8899 40.4598 55.9495 40.4946 55.9997 40.5331C56.7404 39.9671 57.6397 39.6604 58.5664 39.6671ZM60.3398 44.4671C60.6131 44.4598 60.8464 44.2404 60.8664 43.9598V43.8804C60.8864 42.9464 60.3204 42.1004 59.4598 41.7738C59.1864 41.6798 58.8864 41.8271 58.7864 42.1071C58.6931 42.3871 58.8398 42.6938 59.1198 42.7931C59.5471 42.9531 59.8331 43.3738 59.8331 43.8398V43.8604C59.8204 44.0131 59.8664 44.1604 59.9598 44.2738C60.0531 44.3871 60.1931 44.4531 60.3398 44.4671Z" fill="#FF0000"/>
<defs>
<filter id="filter0_d_308_526" x="0" y="0" width="112" height="112" filterUnits="userSpaceOnUse" color-interpolation-filters="sRGB">
<feFlood flood-opacity="0" result="BackgroundImageFix"/>
<feColorMatrix in="SourceAlpha" type="matrix" values="0 0 0 0 0 0 0 0 0 0 0 0 0 0 0 0 0 0 127 0" result="hardAlpha"/>
<feOffset dy="10"/>
<feGaussianBlur stdDeviation="20"/>
<feColorMatrix type="matrix" values="0 0 0 0 0.113725 0 0 0 0 0.0862745 0 0 0 0 0.0901961 0 0 0 0.07 0"/>
<feBlend mode="normal" in2="BackgroundImageFix" result="effect1_dropShadow_308_526"/>
<feBlend mode="normal" in="SourceGraphic" in2="effect1_dropShadow_308_526" result="shape"/>
</filter>
</defs>
</svg>
